<?xml version="1.0" encoding="UTF-8"?>
<!-- Generator: visioncortex VTracer 0.6.3 -->
<svg version="1.1" xmlns="http://www.w3.org/2000/svg" width="1280" height="1260">
<path d="M0 0 C422.4 0 844.8 0 1280 0 C1280 415.8 1280 831.6 1280 1260 C857.6 1260 435.2 1260 0 1260 C0 844.2 0 428.4 0 0 Z " fill="#FBFCFE" transform="translate(0,0)"/>
<path d="M0 0 C16.28 14.41 29.15 35.48 31.23 57.43 C31.7 70.21 27.02 81.72 18.69 91.31 C4.71 105.85 -14.4 115.29 -31.57 125.55 C-50.44 136.83 -68.79 148.04 -85 163 C-85.79 163.71 -86.58 164.41 -87.39 165.14 C-106.23 182.79 -114.38 207.91 -116 233 C-116.11 234.64 -116.11 234.64 -116.22 236.31 C-116.59 247.87 -114.69 259.08 -107 268 C-105.87 269.31 -105.87 269.31 -104.73 270.64 C-63.92 314.52 14.07 314.04 69 318 C68.99 317.11 68.97 316.22 68.96 315.3 C68.87 305.63 69.37 296.12 70.25 286.5 C70.32 285.76 70.38 285.03 70.45 284.27 C75.33 231.02 75.33 231.02 91 215.88 C94 214 94 214 97.06 213.81 C104.19 216.69 107.39 224.91 110.3 231.56 C113.6 239.74 115.36 248.36 117 257 C117.23 258.21 117.23 258.21 117.47 259.44 C121.03 279.02 121.19 299.16 122 319 C170.63 315.12 211.07 303.8 252.61 277.34 C255.6 275.66 257.62 275.7 261 276 C263.61 277.31 263.97 278.28 265 281 C265.56 283.87 265.56 283.87 265 287 C256.17 296.68 241.34 302.57 229.81 308.56 C229.19 308.89 228.56 309.21 227.92 309.55 C218.17 314.59 208.37 319.03 197.9 322.39 C196.2 322.93 194.52 323.52 192.84 324.12 C170.06 331.84 144.97 334.75 121 334 C120.97 335.23 120.95 336.46 120.92 337.72 C120.3 359.28 117.98 381.06 112.66 401.99 C109.6 414.54 109.86 427.86 109.67 440.71 C109.65 442.11 109.63 443.51 109.6 444.91 C109.55 447.92 109.51 450.92 109.46 453.93 C109.39 458.79 109.3 463.66 109.22 468.53 C109.19 470.23 109.17 471.94 109.14 473.64 C109.12 474.5 109.11 475.36 109.09 476.24 C109.05 478.89 109 481.54 108.96 484.2 C107.55 569.53 105.8 654.85 96.88 857.94 C96.79 859.13 96.71 860.31 96.63 861.54 C95.08 884.05 95.08 884.05 93 894 C85.52 882.78 88.11 860.44 87.5 847.44 C87.44 846.1 87.37 844.77 87.31 843.44 C85.35 802.78 83.99 762.12 83 721.43 C82.96 719.72 82.92 718.01 82.88 716.31 C82.58 704.18 82.31 692.06 82.06 679.93 C82.02 677.97 81.98 676 81.94 674.04 C81.24 640.52 80.89 607 80.65 573.48 C80.61 566.7 80.55 559.92 80.5 553.14 C80.48 550.85 80.47 548.57 80.45 546.28 C80.42 542.83 80.4 539.37 80.37 535.91 C80.27 522.97 80.18 510.02 80.1 497.07 C80.04 486.61 79.96 476.14 79.87 465.67 C79.83 460.19 79.79 454.7 79.76 449.22 C79.74 444.1 79.7 438.98 79.65 433.86 C79.63 432 79.62 430.14 79.62 428.28 C79.6 415.97 78.01 404.92 75 393 C74.37 389.76 73.84 386.52 73.38 383.25 C73.26 382.44 73.14 381.62 73.02 380.79 C72.14 374.46 71.43 368.11 70.81 361.75 C70.73 360.91 70.64 360.07 70.56 359.21 C69.84 351.14 69.93 343.09 70 335 C68.83 334.92 67.66 334.85 66.45 334.77 C23.64 332 23.64 332 4.65 329.36 C2 329 -0.64 328.67 -3.29 328.36 C-17.12 326.62 -30.52 323.51 -44 320 C-44.95 319.75 -45.89 319.51 -46.87 319.26 C-68.15 313.61 -88.16 304.93 -106 292 C-107.01 291.29 -108.02 290.58 -109.06 289.86 C-121.32 280.68 -129.49 266.27 -131.81 251.18 C-135.7 221.06 -127.52 191.75 -109.98 167.18 C-87.71 138.74 -56.57 121.43 -26.07 103.26 C-1.42 90.09 -1.42 90.09 14 68 C15.88 50.66 9.17 36.53 -1.44 23.25 C-2.94 21.49 -4.46 19.74 -6 18 C-6.9 16.95 -6.9 16.95 -7.82 15.89 C-16.76 6.22 -28.68 -0.66 -41 -5 C-42.01 -5.38 -43.02 -5.76 -44.06 -6.15 C-67.14 -14.44 -92.96 -10.11 -114.75 -0.06 C-128.77 7.24 -141.3 17.55 -152.55 28.59 C-153.98 29.98 -155.45 31.34 -156.92 32.7 C-167.37 42.58 -177.78 56.28 -179.2 71.11 C-179.35 78.06 -177.86 83.19 -173.19 88.5 C-156.89 103.67 -132.59 104.2 -111.75 104.06 C-110.41 104.06 -109.07 104.05 -107.72 104.05 C-104.48 104.04 -101.24 104.02 -98 104 C-94.02 110.66 -94.02 110.66 -93.88 113.69 C-95.56 117.14 -97.64 118.18 -101 120 C-103.97 120.55 -106.87 120.54 -109.88 120.5 C-110.73 120.5 -111.58 120.5 -112.45 120.5 C-114.24 120.5 -116.04 120.49 -117.83 120.47 C-120.53 120.44 -123.23 120.45 -125.93 120.46 C-138.86 120.44 -150.57 118.9 -162.56 113.81 C-163.28 113.51 -163.99 113.21 -164.73 112.9 C-176.58 107.73 -187.62 100.47 -193.5 88.56 C-197.49 77.12 -195.99 62.81 -191 52 C-181.13 33 -165.86 16.96 -149 4 C-148 3.2 -147 2.39 -145.97 1.56 C-102.76 -33.01 -43.27 -36.34 0 0 Z " fill="#6B7171" transform="translate(547,78)"/>
<path d="M0 0 C1.17 -0 2.34 -0 3.55 -0 C5.39 0 5.39 0 7.27 0.01 C8.48 0 9.68 0 10.93 -0 C20.87 0.01 20.87 0.01 25.17 0.61 C31.67 1.48 38.22 1.49 44.77 1.65 C46.33 1.7 46.33 1.7 47.92 1.75 C49.33 1.79 49.33 1.79 50.78 1.83 C53.08 2.13 53.08 2.13 55.08 4.13 C55.08 6.11 55.08 8.09 55.08 10.13 C49.14 10.46 43.2 10.79 37.08 11.13 C37.13 13.18 37.17 15.23 37.22 17.34 C37.25 19.36 37.28 21.38 37.3 23.4 C37.32 24.79 37.35 26.17 37.38 27.56 C37.67 39.38 36.35 48.56 28 57.38 C20.48 64.26 13.07 66.05 3.08 66.32 C-3.06 66.67 -6.13 67.93 -10.37 72.34 C-11.13 73.23 -11.13 73.23 -11.92 74.13 C-12.74 74.87 -12.74 74.87 -13.58 75.63 C-15.77 78.09 -15.62 80.95 -15.92 84.13 C-7.36 90.89 3.09 90.43 13.58 90.63 C37.39 91.08 37.39 91.08 45.7 98.6 C51 104.21 54.2 111.13 54.58 118.88 C54.02 130.78 49.66 140.95 41.77 149.7 C40.44 150.9 40.44 150.9 39.08 152.13 C38.46 152.76 37.83 153.39 37.19 154.04 C27.13 163.75 15.94 166.31 2.39 166.45 C1.45 166.47 0.51 166.5 -0.46 166.53 C-10.7 166.62 -18.63 162.88 -26.92 157.13 C-28.28 156.2 -28.28 156.2 -29.67 155.26 C-34.63 150.57 -36.71 145.21 -37.17 138.51 C-36.92 125.19 -29.34 116.16 -20.19 107.3 C-19.44 106.58 -18.69 105.87 -17.92 105.13 C-16.91 104.14 -15.91 103.14 -14.92 102.13 C-15.73 101.75 -16.53 101.36 -17.37 100.96 C-18.97 100.18 -18.97 100.18 -20.61 99.38 C-22.19 98.62 -22.19 98.62 -23.8 97.84 C-31.05 93.87 -31.05 93.87 -32.92 90.13 C-33.35 85.59 -33.18 82.52 -30.39 78.8 C-27.09 75.06 -23.5 71.6 -19.92 68.13 C-18.58 66.8 -17.25 65.47 -15.92 64.13 C-16.6 63.47 -17.28 62.81 -17.98 62.13 C-26.16 53.91 -32.02 46.89 -32.11 34.82 C-31.99 25.22 -29.39 16.62 -22.79 9.45 C-16.53 3.52 -8.58 0.01 0 0 Z " fill="#050408" transform="translate(598.91796875,1028.8671875)"/>
<path d="M0 0 C-0.16 0.87 -0.32 1.74 -0.49 2.64 C-0.96 5.76 -1.13 8.66 -1.15 11.82 C-1.15 12.96 -1.16 14.1 -1.17 15.27 C-1.17 16.5 -1.17 17.74 -1.18 19.01 C-1.18 20.32 -1.19 21.63 -1.2 22.98 C-1.22 27.31 -1.23 31.65 -1.24 35.98 C-1.24 37.47 -1.25 38.96 -1.25 40.46 C-1.27 47.47 -1.28 54.48 -1.29 61.5 C-1.3 69.59 -1.33 77.68 -1.37 85.77 C-1.4 92.03 -1.41 98.29 -1.42 104.55 C-1.42 108.29 -1.43 112.02 -1.45 115.76 C-1.48 119.92 -1.48 124.09 -1.47 128.25 C-1.48 129.49 -1.5 130.73 -1.51 132 C-1.5 133.13 -1.49 134.27 -1.49 135.43 C-1.49 136.42 -1.49 137.4 -1.49 138.42 C-0.86 141.75 0.34 142.96 3 145 C3.99 145 4.98 145 6 145 C7.56 145.15 9.13 145.32 10.69 145.5 C11.5 145.59 12.3 145.69 13.14 145.78 C13.75 145.85 14.37 145.93 15 146 C15 147.65 15 149.3 15 151 C11.77 151.84 8.54 152.67 5.31 153.5 C4.4 153.74 3.49 153.98 2.55 154.22 C1.22 154.56 1.22 154.56 -0.14 154.91 C-0.95 155.12 -1.76 155.33 -2.6 155.54 C-5.15 156.03 -7.4 156.2 -10 156 C-12.08 153.92 -12.98 152.05 -14.06 149.31 C-14.77 146.84 -14.77 146.84 -17 146 C-17.23 146.6 -17.46 147.21 -17.69 147.83 C-19.38 150.62 -21 151.32 -23.94 152.69 C-24.81 153.1 -25.69 153.52 -26.59 153.95 C-34.94 157.59 -45.98 157.32 -54.71 155.02 C-57.6 153.84 -60.29 152.54 -63 151 C-64.67 150.07 -64.67 150.07 -66.38 149.12 C-76.19 141.18 -80.68 130.41 -82 118 C-83.21 103.56 -79.9 88.18 -70.66 76.8 C-62.75 68.19 -53.44 61.78 -41.52 60.8 C-38.84 60.7 -36.18 60.68 -33.5 60.69 C-32.15 60.66 -32.15 60.66 -30.78 60.64 C-29.45 60.64 -29.45 60.64 -28.09 60.64 C-27.31 60.63 -26.52 60.63 -25.71 60.63 C-21.86 61.16 -18.6 62.56 -15 64 C-15.07 57.42 -15.16 50.83 -15.26 44.25 C-15.3 42.01 -15.32 39.77 -15.35 37.53 C-15.38 34.31 -15.43 31.09 -15.49 27.87 C-15.49 26.87 -15.5 25.87 -15.51 24.85 C-15.62 19.53 -15.93 15.55 -19 11 C-21.22 9.87 -21.22 9.87 -23.69 9.62 C-24.5 9.49 -25.3 9.36 -26.14 9.23 C-26.75 9.15 -27.37 9.08 -28 9 C-28.49 7.02 -28.49 7.02 -29 5 C-25.11 3.96 -21.21 2.95 -17.31 1.94 C-16.21 1.64 -15.11 1.35 -13.97 1.04 C-12.37 0.63 -12.37 0.63 -10.74 0.21 C-9.76 -0.04 -8.78 -0.3 -7.77 -0.56 C-4.85 -1.02 -2.83 -0.76 0 0 Z " fill="#040407" transform="translate(1053,968)"/>
<path d="M0 0 C10.5 8.06 16.69 19.01 19.09 32.06 C20.71 45.21 18.47 60.51 10.38 71.38 C-2.83 87.17 -2.83 87.17 -13.76 88.67 C-22.67 89.34 -30.88 89.23 -38.62 84.38 C-39.46 83.93 -40.3 83.48 -41.17 83.02 C-46.82 79.9 -50.89 76.63 -54.62 71.38 C-55.08 70.77 -55.53 70.16 -55.99 69.54 C-64.02 57.91 -63.97 43.42 -62.16 29.87 C-59.13 16.07 -50.71 4.43 -38.97 -3.39 C-26.39 -10 -11.32 -7.71 0 0 Z " fill="#FBFCFE" transform="translate(1200.625,1035.625)"/>
<path d="M0 0 C1.79 0.05 1.79 0.05 3.61 0.11 C4.75 0.15 5.89 0.19 7.07 0.24 C8.11 0.28 9.15 0.31 10.23 0.35 C12.88 0.69 12.88 0.69 15.88 2.69 C15.31 4.62 15.31 4.62 13.88 6.69 C12.76 6.83 11.65 6.98 10.5 7.12 C6.83 7.33 6.83 7.33 4.84 9.75 C2.6 13.09 1.17 16.49 -0.19 20.25 C-0.47 20.99 -0.74 21.72 -1.03 22.48 C-1.92 24.88 -2.8 27.28 -3.69 29.69 C-4.31 31.35 -4.93 33.02 -5.55 34.69 C-6.81 38.06 -8.07 41.44 -9.32 44.82 C-11.91 51.81 -14.55 58.78 -17.19 65.75 C-17.62 66.89 -18.04 68.03 -18.48 69.2 C-19.29 71.33 -20.1 73.45 -20.93 75.58 C-21.76 77.75 -22.58 79.93 -23.37 82.12 C-23.78 83.21 -24.19 84.31 -24.62 85.43 C-24.98 86.42 -25.34 87.4 -25.72 88.42 C-27.12 90.69 -27.12 90.69 -29.62 91.63 C-32.12 91.69 -32.12 91.69 -34.66 89.89 C-38.09 86 -39.72 81.16 -41.56 76.38 C-41.95 75.39 -42.34 74.41 -42.74 73.4 C-43.89 70.5 -45.01 67.6 -46.12 64.69 C-46.42 63.92 -46.72 63.15 -47.02 62.35 C-48.51 58.46 -49.96 54.56 -51.4 50.65 C-52.19 48.51 -53.01 46.38 -53.82 44.25 C-54.1 43.52 -54.38 42.79 -54.67 42.03 C-55.21 40.63 -55.75 39.23 -56.3 37.82 C-57.39 34.95 -58.12 32.79 -58.12 29.69 C-58.78 29.69 -59.44 29.69 -60.12 29.69 C-60.41 30.57 -60.7 31.45 -60.99 32.36 C-61.99 35.3 -63.09 38.13 -64.3 40.99 C-64.74 42.04 -65.18 43.08 -65.64 44.16 C-66.13 45.32 -66.62 46.49 -67.12 47.69 C-69.2 52.64 -71.26 57.61 -73.32 62.57 C-73.94 64.07 -74.57 65.57 -75.19 67.07 C-78.58 75.17 -81.91 83.17 -84.12 91.69 C-87.83 92.12 -89.55 92.12 -92.57 89.83 C-96.19 85.94 -97.61 81.04 -99.38 76.12 C-100.24 73.81 -101.1 71.5 -101.97 69.19 C-102.46 67.86 -102.95 66.54 -103.45 65.21 C-106.5 56.97 -109.61 48.75 -112.74 40.54 C-113.86 37.6 -114.96 34.66 -116.06 31.72 C-116.76 29.87 -117.47 28.03 -118.17 26.18 C-118.48 25.34 -118.79 24.5 -119.11 23.64 C-121.57 17.27 -124.77 11.06 -130.46 7.03 C-131.13 6.75 -131.81 6.47 -132.5 6.19 C-133.7 5.69 -134.89 5.2 -136.12 4.69 C-135.79 3.37 -135.47 2.05 -135.12 0.69 C-129.89 0.64 -124.66 0.6 -119.43 0.58 C-117.65 0.57 -115.86 0.55 -114.08 0.54 C-111.53 0.51 -108.97 0.5 -106.41 0.49 C-105.22 0.48 -105.22 0.48 -103.99 0.46 C-102.04 0.46 -100.08 0.57 -98.12 0.69 C-96.12 2.69 -96.12 2.69 -96.12 5.69 C-97.08 5.89 -97.08 5.89 -98.06 6.09 C-98.88 6.27 -99.71 6.44 -100.56 6.62 C-101.39 6.8 -102.21 6.97 -103.06 7.15 C-105.1 7.5 -105.1 7.5 -106.12 8.69 C-106.62 15.28 -105.25 20.29 -102.98 26.45 C-102.5 27.81 -102.5 27.81 -102 29.19 C-101.32 31.1 -100.63 33 -99.94 34.91 C-98.88 37.81 -97.84 40.71 -96.81 43.62 C-96.14 45.48 -95.47 47.34 -94.8 49.2 C-94.49 50.06 -94.18 50.92 -93.87 51.81 C-92.5 55.52 -91.15 58.87 -88.88 62.13 C-87.12 64.69 -87.12 64.69 -87.38 67.06 C-87.62 67.6 -87.87 68.13 -88.12 68.69 C-87.47 68.69 -86.81 68.69 -86.12 68.69 C-86.12 69.35 -86.12 70.01 -86.12 70.69 C-85.47 70.69 -84.81 70.69 -84.12 70.69 C-84.03 69.89 -83.94 69.09 -83.84 68.27 C-82.94 63.76 -81.36 59.71 -79.69 55.44 C-79.17 54.09 -79.17 54.09 -78.64 52.72 C-76.58 47.37 -74.47 42.03 -72.34 36.7 C-71.64 34.95 -71.64 34.95 -70.94 33.17 C-70.03 30.88 -69.12 28.59 -68.19 26.31 C-67.77 25.26 -67.36 24.21 -66.93 23.12 C-66.37 21.73 -66.37 21.73 -65.8 20.31 C-65.03 17.33 -65.22 15.61 -66.12 12.69 C-67.09 11.33 -68.09 9.99 -69.12 8.69 C-69.12 8.03 -69.12 7.37 -69.12 6.69 C-71.44 6.36 -73.75 6.03 -76.12 5.69 C-76.78 4.04 -77.44 2.39 -78.12 0.69 C-72.75 0.64 -67.37 0.6 -62 0.58 C-60.17 0.57 -58.34 0.55 -56.51 0.54 C-53.89 0.51 -51.26 0.5 -48.63 0.49 C-47.81 0.48 -46.99 0.47 -46.15 0.46 C-44.14 0.46 -42.13 0.57 -40.12 0.69 C-39.13 1.68 -39.13 1.68 -38.12 2.69 C-40.02 6.03 -41.07 6.67 -44.81 7.94 C-46.45 8.31 -46.45 8.31 -48.12 8.69 C-49.59 13.33 -48.46 16.71 -46.88 21.12 C-46.61 21.88 -46.35 22.63 -46.09 23.4 C-45.12 26.17 -44.12 28.93 -43.12 31.69 C-42.69 32.9 -42.25 34.1 -41.81 35.35 C-40.36 39.36 -38.9 43.37 -37.44 47.38 C-37.2 48.03 -36.96 48.69 -36.71 49.36 C-36.01 51.27 -35.31 53.17 -34.61 55.07 C-34.21 56.18 -33.8 57.29 -33.38 58.42 C-32.46 60.81 -31.5 63.14 -30.47 65.48 C-29.12 68.69 -29.12 68.69 -29.12 70.69 C-26.69 69.76 -26.69 69.76 -25.82 66.16 C-25.29 64.5 -24.77 62.85 -24.25 61.19 C-21.99 54.14 -19.59 47.14 -17.03 40.2 C-16.76 39.46 -16.49 38.73 -16.21 37.98 C-15.13 35.02 -14.03 32.07 -12.93 29.12 C-12.15 27.04 -11.37 24.94 -10.6 22.85 C-10.15 21.64 -9.7 20.43 -9.23 19.18 C-8.1 15.61 -7.54 12.4 -7.12 8.69 C-7.78 8.69 -8.44 8.69 -9.12 8.69 C-9.12 8.03 -9.12 7.37 -9.12 6.69 C-9.87 6.61 -10.61 6.52 -11.38 6.44 C-14.65 5.54 -15.96 4.25 -18.12 1.69 C-18.12 1.36 -18.12 1.03 -18.12 0.69 C-12.08 -0.75 -6.17 -0.24 0 0 Z " fill="#040407" transform="translate(366.125,1030.3125)"/>
<path d="M0 0 C2.72 2.72 2.78 5.31 3 9 C2.97 12.49 2.78 15.96 2.56 19.44 C2.51 20.36 2.46 21.28 2.4 22.23 C2.28 24.49 2.14 26.74 2 29 C-0.31 29.25 -0.31 29.25 -3 29 C-5.65 26.39 -6.45 23.87 -7.25 20.31 C-8.99 14.11 -12.42 8.58 -17.71 4.77 C-21.18 3.6 -24.63 3.66 -28.25 3.69 C-29.01 3.69 -29.78 3.7 -30.56 3.7 C-37.7 3.86 -42.29 4.8 -48 9.44 C-50.79 13.26 -50.8 17.42 -50.64 22.02 C-49.73 26.28 -47.65 28.54 -44.53 31.48 C-44.03 31.98 -43.52 32.48 -43 33 C-43 33.66 -43 34.32 -43 35 C-42.2 35.27 -41.39 35.54 -40.56 35.81 C-39.72 36.2 -38.87 36.6 -38 37 C-37.67 37.99 -37.34 38.98 -37 40 C-34.5 41.22 -34.5 41.22 -32 42 C-32 42.66 -32 43.32 -32 44 C-31.42 44.27 -30.85 44.54 -30.25 44.81 C-27.94 46.03 -25.98 47.3 -24 49 C-24 49.66 -24 50.32 -24 51 C-23.44 51.25 -22.89 51.49 -22.31 51.75 C-19.58 53.23 -17.32 54.93 -15 57 C-15 57.66 -15 58.32 -15 59 C-14.36 59.27 -13.72 59.54 -13.06 59.81 C-11 61 -11 61 -10 64 C-9.12 64.37 -9.12 64.37 -8.22 64.75 C-4.85 66.65 -3.33 69.74 -1.44 73 C-1.04 73.68 -0.64 74.36 -0.23 75.06 C5.84 85.76 8.38 97.56 5.31 109.75 C4.37 112 3.32 113.95 2 116 C1.29 117.11 1.29 117.11 0.57 118.25 C-2.3 122.42 -4.17 124.27 -9 126 C-11.52 127.26 -14.01 128.57 -16.5 129.88 C-25.86 134.07 -39.9 133.38 -49.69 131.16 C-57.03 128.25 -65.39 123.61 -71 118 C-71.31 113.99 -71.28 109.96 -71.31 105.94 C-71.34 104.82 -71.37 103.7 -71.4 102.54 C-71.45 95.54 -70.84 90.92 -67 85 C-64.31 83.12 -64.31 83.12 -62 82 C-61.5 81.01 -61.5 81.01 -61 80 C-55.98 78.19 -51.34 77.66 -46 77.69 C-45.33 77.67 -44.65 77.66 -43.96 77.64 C-38.45 77.63 -33.45 78.58 -29.41 82.58 C-26.98 87.05 -26.75 89.89 -28 95 C-35.25 95.61 -35.25 95.61 -38.81 92.69 C-40.01 91.21 -41.2 89.73 -42.31 88.19 C-45.25 86.12 -48.58 86.64 -52 87 C-56 87.75 -57.46 88.26 -59.88 91.56 C-62.01 98.09 -61.6 103.91 -58.91 110.21 C-56.27 115.4 -53.33 117.79 -48 120 C-47.01 120.42 -47.01 120.42 -46 120.85 C-37.8 124 -29.32 124.21 -21.07 121.04 C-16.02 118.51 -12.29 115.39 -10.06 110.12 C-7.51 101.68 -9.24 94.78 -13 87 C-20.13 74.72 -29.73 66.38 -41 57.9 C-45.22 54.7 -49.17 51.27 -53.06 47.69 C-53.6 47.2 -54.13 46.7 -54.69 46.2 C-62.16 39.21 -66.1 33.46 -66.5 23.19 C-66.31 14.89 -64.04 9.18 -58.31 3.19 C-40.33 -8.69 -19.61 -8.68 0 0 Z " fill="#060409" transform="translate(779,992)"/>
<path d="M0 0 C1.61 0.39 1.61 0.39 3.25 0.79 C6.72 2.32 7.37 3.63 9 7 C9.34 9.77 9.34 9.77 9.29 12.74 C9.28 13.8 9.27 14.87 9.26 15.97 C9.24 17.07 9.21 18.18 9.19 19.31 C9.17 21 9.17 21 9.15 22.71 C9.11 25.48 9.06 28.24 9 31 C6.69 31.62 6.69 31.62 4 32 C0.41 29.61 0.48 28.26 -0.41 24.22 C-1.91 18.56 -4.93 13.19 -9 9 C-13.17 6.84 -17.14 6.65 -21.75 6.69 C-22.46 6.69 -23.17 6.7 -23.9 6.7 C-30.85 6.86 -36.48 7.48 -41.5 12.5 C-44.34 17.24 -44.62 21.61 -44 27 C-40.15 35.39 -30.83 41.65 -23.4 46.81 C-22.94 47.2 -22.48 47.59 -22 48 C-22 48.66 -22 49.32 -22 50 C-21.4 50.29 -20.8 50.58 -20.19 50.88 C-18 52 -18 52 -15 54 C-15 54.66 -15 55.32 -15 56 C-14.27 56.23 -13.55 56.46 -12.8 56.7 C-2.49 61.48 6.04 76.14 10.45 86.36 C13.96 96.66 14.52 106.37 10.31 116.54 C5.6 125.4 -4.01 130.77 -13.16 134.18 C-18.27 135.27 -23.17 135.37 -28.38 135.38 C-29.37 135.4 -30.35 135.42 -31.38 135.45 C-38.17 135.48 -43.05 134.25 -49 131 C-49.86 130.57 -50.72 130.14 -51.6 129.69 C-53.03 128.9 -54.44 128.08 -55.85 127.24 C-57.95 125.97 -57.95 125.97 -60.12 125.13 C-62.49 123.98 -63.57 123.24 -65 121 C-65.63 116.26 -65.49 111.73 -65.14 106.98 C-65.02 105.24 -64.97 103.5 -64.93 101.75 C-64.61 93.95 -62.11 90.03 -56.62 84.69 C-51.08 81.12 -45.27 80.68 -38.88 80.75 C-38.19 80.74 -37.5 80.73 -36.79 80.73 C-30.87 80.75 -27.47 81.59 -23.19 85.69 C-20.65 89.53 -20.39 91.48 -21 96 C-23 98 -23 98 -26.38 98.38 C-30 98 -30 98 -32.25 96.25 C-34 94 -34 94 -35.25 91.75 C-37.04 89.6 -37.04 89.6 -40.75 89.56 C-45.09 89.79 -48.21 90.88 -52 93 C-55.2 97.79 -54.53 103.49 -54 109 C-52.99 113.54 -51.63 116.82 -47.8 119.59 C-45.42 120.95 -45.42 120.95 -43.02 122.03 C-41 123 -41 123 -39 125 C-38.01 125 -37.02 125 -36 125 C-35.39 125.16 -34.77 125.32 -34.14 125.48 C-26.68 127.28 -18.86 126.3 -12 123 C-6.07 119.31 -3.6 114.65 -2 108 C-1.25 97.18 -7.44 87.08 -14 79 C-19.43 72.88 -25.43 67.78 -31.96 62.9 C-38.39 58.04 -44.24 52.62 -50 47 C-50.75 46.28 -51.5 45.56 -52.27 44.81 C-57.7 39.15 -59.46 33.25 -60.44 25.56 C-59.34 16.62 -56.52 10.33 -49.42 4.65 C-34.52 -5.52 -16.76 -4.19 0 0 Z " fill="#050408" transform="translate(127,989)"/>
<path d="M0 0 C1.18 0.02 2.35 0.04 3.56 0.06 C8.47 1.4 11.25 3.7 14 8 C15.03 12.44 14.98 16.77 14.93 21.31 C14.94 23.23 14.94 23.23 14.95 25.19 C14.96 27.89 14.95 30.59 14.91 33.3 C14.87 36.74 14.9 40.18 14.94 43.63 C14.97 46.94 14.95 50.25 14.93 53.56 C14.94 54.79 14.96 56.01 14.97 57.28 C14.84 64.4 13.94 68.45 8.8 73.53 C3.22 78.08 -2.73 79.37 -9.82 79.29 C-13.91 78.75 -17.36 76.84 -21 75 C-22.05 74.57 -23.1 74.13 -24.19 73.69 C-31.56 69.27 -34.22 63.28 -36.3 55.09 C-38.99 41.18 -37.77 27.33 -30.19 15.19 C-29.15 13.77 -28.09 12.37 -27 11 C-26.5 10.35 -26 9.7 -25.48 9.03 C-19.06 1.66 -9.5 -0.81 0 0 Z " fill="#FBFCFE" transform="translate(1023,1036)"/>
<path d="M0 0 C0.83 -0.02 1.67 -0.03 2.52 -0.05 C7.3 -0.05 10.55 0.15 14.38 3.31 C24.39 14.63 25.51 26.76 25.48 41.23 C25.49 43.56 25.51 45.89 25.53 48.22 C25.55 51.87 25.56 55.52 25.55 59.18 C25.54 62.72 25.57 66.25 25.61 69.79 C25.59 70.89 25.58 71.98 25.57 73.11 C25.45 78.41 25.45 78.41 27.76 82.91 C29.56 84.2 29.56 84.2 32.38 85.31 C33.03 84.98 33.69 84.65 34.38 84.31 C34.38 84.97 34.38 85.63 34.38 86.31 C35.18 86.29 35.98 86.27 36.81 86.25 C39.38 86.31 39.38 86.31 40.38 87.31 C40.38 88.96 40.38 90.61 40.38 92.31 C26.85 92.31 13.32 92.31 -0.62 92.31 C-1.28 90.99 -1.94 89.67 -2.62 88.31 C0.09 85.6 2.58 85.59 6.28 84.97 C8.75 84.44 8.75 84.44 10.38 81.31 C10.68 79.12 10.68 79.12 10.65 76.68 C10.66 75.74 10.67 74.8 10.68 73.84 C10.68 72.82 10.68 71.8 10.68 70.76 C10.68 69.18 10.68 69.18 10.69 67.57 C10.69 65.33 10.7 63.1 10.69 60.87 C10.69 57.49 10.71 54.11 10.74 50.73 C11.3 30.14 11.3 30.14 2.38 12.31 C-3.78 9.23 -12.19 11.23 -18.44 13.12 C-26.04 15.29 -26.04 15.29 -32.62 19.31 C-32.75 21.16 -32.8 23.01 -32.82 24.85 C-32.83 26.04 -32.85 27.22 -32.87 28.45 C-32.91 33.88 -32.95 39.31 -32.98 44.75 C-32.99 48.33 -33.04 51.91 -33.09 55.48 C-33.12 58.24 -33.13 60.99 -33.14 63.75 C-33.15 65.71 -33.18 67.66 -33.22 69.62 C-33.48 76.65 -33.48 76.65 -30.32 82.59 C-27.18 84.6 -24.24 85.43 -20.62 86.31 C-18.62 88.31 -18.62 88.31 -18.62 92.31 C-24.28 92.36 -29.94 92.4 -35.6 92.42 C-37.53 92.43 -39.46 92.45 -41.38 92.46 C-44.15 92.49 -46.91 92.5 -49.68 92.51 C-50.54 92.52 -51.41 92.53 -52.3 92.54 C-54.41 92.54 -56.52 92.44 -58.62 92.31 C-59.29 91.65 -59.94 90.99 -60.62 90.31 C-60.3 88.99 -59.96 87.67 -59.62 86.31 C-54.18 85.32 -54.18 85.32 -48.62 84.31 C-47.73 76.59 -47.45 69 -47.42 61.23 C-47.42 60.01 -47.41 58.79 -47.4 57.53 C-47.4 54.97 -47.39 52.41 -47.38 49.85 C-47.37 45.93 -47.34 42.01 -47.31 38.08 C-47.31 35.59 -47.3 33.1 -47.3 30.6 C-47.28 29.43 -47.27 28.26 -47.26 27.05 C-47.26 25.96 -47.27 24.87 -47.27 23.75 C-47.26 22.79 -47.26 21.84 -47.26 20.85 C-47.69 17.88 -48.74 16.59 -50.62 14.31 C-50.62 13.65 -50.62 12.99 -50.62 12.31 C-51.9 12.17 -53.18 12.02 -54.5 11.88 C-56.88 11.61 -58.47 11.39 -60.62 10.31 C-60.62 9.32 -60.62 8.33 -60.62 7.31 C-40.43 0.97 -40.43 0.97 -33.62 1.31 C-33.3 3.95 -32.96 6.59 -32.62 9.31 C-32.08 9.03 -31.54 8.76 -30.99 8.47 C-28.3 7.15 -25.57 5.97 -22.81 4.81 C-21.82 4.39 -20.82 3.97 -19.79 3.53 C-13.01 0.92 -7.2 -0.03 0 0 Z " fill="#060409" transform="translate(506.625,1028.6875)"/>
<path d="M0 0 C0.91 -0.01 1.82 -0.02 2.76 -0.04 C3.63 -0.04 4.51 -0.04 5.41 -0.04 C6.61 -0.05 6.61 -0.05 7.82 -0.06 C9.94 0.19 9.94 0.19 12.94 2.19 C13.28 4.8 13.28 4.8 13.25 8.15 C13.24 9.4 13.23 10.65 13.23 11.94 C13.2 13.32 13.18 14.69 13.16 16.07 C13.15 17.48 13.14 18.89 13.13 20.3 C13.11 24.02 13.07 27.74 13.03 31.47 C12.96 37.4 12.9 43.34 12.86 49.27 C12.85 51.34 12.82 53.4 12.79 55.46 C12.45 67.47 12.45 67.47 17.19 78.12 C20.08 80.29 22.46 81.26 25.94 82.19 C26.93 82.68 26.93 82.68 27.94 83.19 C35.56 84.15 40.8 82.29 46.85 77.75 C52.58 72.68 55.42 66.49 56.16 58.86 C56.47 53.26 56.46 47.66 56.4 42.05 C56.37 39.06 56.38 36.07 56.4 33.08 C56.39 31.16 56.38 29.23 56.37 27.3 C56.37 26.42 56.38 25.54 56.38 24.63 C56.3 19.19 56.05 11.3 51.94 7.19 C50.43 6.8 48.9 6.45 47.38 6.12 C46.55 5.95 45.72 5.77 44.87 5.59 C44.23 5.46 43.59 5.32 42.94 5.19 C42.44 3.21 42.44 3.21 41.94 1.19 C45.1 0.13 47.35 0.06 50.66 0.05 C51.78 0.05 52.89 0.05 54.04 0.05 C55.78 0.06 55.78 0.06 57.56 0.06 C59.32 0.06 59.32 0.06 61.11 0.05 C62.22 0.05 63.33 0.05 64.48 0.05 C66.01 0.06 66.01 0.06 67.58 0.06 C69.94 0.19 69.94 0.19 70.94 1.19 C71.06 3.47 71.1 5.75 71.13 8.03 C71.14 9.1 71.14 9.1 71.15 10.2 C71.17 11.76 71.18 13.32 71.2 14.88 C71.22 17.34 71.25 19.81 71.27 22.28 C71.33 27.52 71.39 32.76 71.44 38 C71.5 44.06 71.56 50.12 71.63 56.19 C71.66 58.62 71.68 61.05 71.7 63.48 C71.71 64.97 71.73 66.46 71.75 67.96 C71.76 69.26 71.77 70.56 71.79 71.9 C71.91 74.54 72.15 76.69 72.94 79.19 C73.56 79.33 74.17 79.48 74.81 79.62 C76.94 80.19 76.94 80.19 78.94 81.19 C79.27 80.53 79.6 79.87 79.94 79.19 C79.94 79.85 79.94 80.51 79.94 81.19 C81.26 81.19 82.58 81.19 83.94 81.19 C84.6 82.84 85.26 84.49 85.94 86.19 C67.66 93.7 67.66 93.7 60.94 93.19 C57.51 85.9 57.51 85.9 57.94 81.19 C56.95 81.19 55.96 81.19 54.94 81.19 C54.69 81.81 54.44 82.42 54.19 83.06 C52.72 85.57 51.53 86.02 48.94 87.19 C48.61 87.85 48.28 88.51 47.94 89.19 C45.79 90.22 45.79 90.22 43.12 91.25 C42.25 91.59 41.38 91.93 40.48 92.29 C32.56 95.09 22.95 95.71 14.84 93.25 C7.25 89.6 2.8 85.21 -0.06 77.19 C-0.89 73.71 -1.19 70.48 -1.22 66.91 C-1.23 65.88 -1.24 64.86 -1.25 63.8 C-1.26 62.69 -1.27 61.59 -1.27 60.46 C-1.3 58.1 -1.33 55.75 -1.36 53.4 C-1.4 49.7 -1.44 46.01 -1.46 42.31 C-1.49 38.73 -1.54 35.16 -1.59 31.58 C-1.59 30.49 -1.59 29.4 -1.6 28.27 C-1.7 21.72 -2.06 15.14 -5.06 9.19 C-7.21 7.32 -9.34 6.03 -11.81 4.62 C-12.55 4.15 -13.3 3.68 -14.06 3.19 C-14.06 2.53 -14.06 1.87 -14.06 1.19 C-9.39 -0.15 -4.83 0 0 0 Z " fill="#07040A" transform="translate(871.0625,1029.8125)"/>
<path d="M0 0 C8.24 8.91 9.31 16.24 9.31 28.5 C-7.85 28.83 -25.01 29.16 -42.69 29.5 C-46.59 41.2 -45.88 54.23 -40.69 65.5 C-37.84 70.07 -34.97 73.01 -29.69 74.5 C-24.91 76.36 -24.91 76.36 -22.98 77.54 C-16.31 80.34 -6.68 79.3 -0.12 76.62 C1.36 75.93 2.84 75.22 4.31 74.5 C6.31 73.81 8.3 73.13 10.31 72.5 C11.09 74.74 11.09 74.74 11.31 77.5 C9.48 79.67 9.48 79.67 6.94 81.69 C3.63 84.19 3.63 84.19 1.31 87.5 C-8.46 92.35 -19.9 95.12 -30.63 91.92 C-42.1 87.6 -50.01 80.2 -55.5 69.34 C-61.49 55.01 -60.03 36.14 -54.21 21.88 C-48.51 10.63 -40.49 2.43 -28.66 -2.31 C-19.65 -4.96 -8.27 -4.62 0 0 Z " fill="#060409" transform="translate(214.6875,1031.5)"/>
<path d="M0 0 C10.5 8.06 16.69 19.01 19.09 32.06 C20.71 45.21 18.47 60.51 10.38 71.38 C-2.83 87.17 -2.83 87.17 -13.76 88.67 C-22.67 89.34 -30.88 89.23 -38.62 84.38 C-39.46 83.93 -40.3 83.48 -41.17 83.02 C-46.82 79.9 -50.89 76.63 -54.62 71.38 C-55.08 70.77 -55.53 70.16 -55.99 69.54 C-64.02 57.91 -63.97 43.42 -62.16 29.87 C-59.13 16.07 -50.71 4.43 -38.97 -3.39 C-26.39 -10 -11.32 -7.71 0 0 Z M-40.44 9 C-49.13 20.01 -50.53 32.73 -49.62 46.38 C-47.8 58.51 -42.41 68.72 -33.04 76.73 C-26.86 80.91 -18.89 80.9 -11.75 79.75 C-4.77 76.68 -1.97 72.85 1.3 66.17 C6.35 53.07 6.55 36.31 1.63 23.13 C-2.06 15.03 -6.21 8.55 -13.62 3.38 C-22.82 0.31 -33.71 1.83 -40.44 9 Z " fill="#050408" transform="translate(1200.625,1035.625)"/>
<path d="M0 0 C2.38 -0.09 4.76 -0.12 7.14 -0.13 C7.93 -0.16 8.72 -0.18 9.53 -0.2 C15.84 -0.24 22.53 0.46 27.49 4.7 C32.29 9.77 34.7 15.62 35.07 22.55 C34.7 31.97 28.84 39.91 22.39 46.37 C15.06 51.03 7.28 53.25 -1.36 53.3 C-2.88 53.32 -2.88 53.32 -4.43 53.35 C-7.5 53.1 -9.58 52.41 -12.36 51.12 C-13.38 50.67 -13.38 50.67 -14.43 50.22 C-19.59 47.78 -23.87 45.17 -26.47 39.85 C-28.57 33.42 -28.4 25.71 -25.86 19.43 C-23.13 14.13 -19.3 9.56 -15.36 5.12 C-14.81 4.38 -14.25 3.64 -13.68 2.88 C-9.62 -0.22 -4.94 0.24 0 0 Z " fill="#FBFCFE" transform="translate(604.36328125,1132.884765625)"/>
<path d="M0 0 C0.99 0 1.98 0 3 0 C3 5.94 3 11.88 3 18 C4.65 18.66 6.3 19.32 8 20 C8.33 19.34 8.66 18.68 9 18 C9.33 18.33 9.66 18.66 10 19 C13.4 19.24 16.78 19.4 20.19 19.52 C25.79 19.79 25.79 19.79 28 22 C28.12 25.12 28.12 25.12 28 28 C25.55 29.23 23.95 29.11 21.21 29.1 C20.27 29.09 19.33 29.09 18.36 29.09 C16.88 29.08 16.88 29.08 15.38 29.06 C14.38 29.06 13.39 29.05 12.37 29.05 C9.91 29.04 7.46 29.02 5 29 C3.79 34.69 3.86 40.28 3.87 46.07 C3.87 47.14 3.87 48.21 3.86 49.31 C3.86 51.57 3.87 53.84 3.87 56.1 C3.87 59.53 3.87 62.95 3.86 66.38 C3.16 83.91 3.16 83.91 6 101 C8.38 102.18 8.38 102.18 11 103 C11.99 103.33 12.98 103.66 14 104 C19.04 104.3 23.27 103.58 28.08 102.24 C28.71 102.16 29.35 102.08 30 102 C30.99 102.99 30.99 102.99 32 104 C31.11 106.94 30.58 108.61 28 110.36 C19.03 113.69 8.2 115.3 -0.98 111.89 C-5.94 108.87 -8.46 105.69 -10 100 C-11.12 92.25 -11.13 84.6 -11.1 76.78 C-11.1 75.42 -11.09 74.07 -11.09 72.71 C-11.09 69.18 -11.08 65.64 -11.07 62.1 C-11.06 58.48 -11.05 54.86 -11.05 51.24 C-11.04 44.16 -11.02 37.08 -11 30 C-11.66 30 -12.32 30 -13 30 C-13 29.34 -13 28.68 -13 28 C-16.3 28 -19.6 28 -23 28 C-24 25 -24 25 -23 22 C-21.18 21.04 -21.18 21.04 -18.88 20.19 C-10.24 16.52 -6.37 11.62 -2.16 3.29 C-1 1 -1 1 0 0 Z " fill="#060409" transform="translate(820,1011)"/>
<path d="M0 0 C3.23 1.82 5.03 3.9 7 7 C7.93 8.3 7.93 8.3 8.88 9.62 C12.92 18.17 12.19 31 9.12 39.78 C6.49 45.01 2.58 49.87 -3 52 C-11.57 52.96 -18.09 51.22 -25 46 C-30.03 40.61 -30.34 34.12 -30.31 27.12 C-30.33 26.36 -30.34 25.6 -30.36 24.81 C-30.37 16.94 -28.05 10.17 -23 4 C-16.57 -1.55 -8.04 -1.25 0 0 Z " fill="#FBFCFE" transform="translate(611,1036)"/>
<path d="M0 0 C0.01 1.41 0.01 1.41 0.02 2.85 C0.1 11.72 0.19 20.6 0.29 29.47 C0.34 34.03 0.38 38.59 0.42 43.15 C0.46 47.55 0.51 51.96 0.56 56.36 C0.58 58.04 0.59 59.72 0.6 61.4 C0.62 63.75 0.65 66.1 0.68 68.46 C0.68 69.15 0.69 69.84 0.69 70.55 C0.75 74.45 1.19 77.52 3 81 C5.68 82.78 8.7 83.64 11.75 84.62 C12.55 84.89 13.35 85.15 14.17 85.41 C14.78 85.61 15.38 85.8 16 86 C15.67 87.65 15.34 89.3 15 91 C9.34 91.05 3.68 91.09 -1.98 91.11 C-3.91 91.12 -5.83 91.13 -7.76 91.15 C-10.52 91.18 -13.29 91.19 -16.05 91.2 C-16.92 91.21 -17.78 91.22 -18.67 91.23 C-20.78 91.23 -22.89 91.12 -25 91 C-25.66 90.34 -26.32 89.68 -27 89 C-27 88.01 -27 87.02 -27 86 C-23.04 84.68 -19.08 83.36 -15 82 C-14.95 73.17 -14.92 64.34 -14.9 55.51 C-14.89 51.4 -14.87 47.3 -14.85 43.2 C-14.83 39.25 -14.82 35.29 -14.81 31.34 C-14.81 29.83 -14.8 28.32 -14.79 26.8 C-14.77 24.69 -14.77 22.58 -14.77 20.47 C-14.77 18.66 -14.77 18.66 -14.76 16.82 C-14.71 13.86 -14.71 13.86 -17 12 C-18.69 11.4 -20.4 10.86 -22.12 10.38 C-23.04 10.11 -23.95 9.85 -24.88 9.59 C-25.58 9.39 -26.28 9.2 -27 9 C-27 8.01 -27 7.02 -27 6 C-7.49 -0.13 -7.49 -0.13 0 0 Z " fill="#040407" transform="translate(1109,1030)"/>
<path d="M0 0 C0.01 1.41 0.01 1.41 0.02 2.85 C0.1 11.72 0.19 20.6 0.29 29.47 C0.34 34.03 0.38 38.59 0.42 43.15 C0.46 47.55 0.51 51.96 0.56 56.36 C0.58 58.04 0.59 59.72 0.6 61.4 C0.62 63.75 0.65 66.1 0.68 68.46 C0.68 69.15 0.69 69.84 0.69 70.55 C0.76 74.45 1.17 77.54 3 81 C5.39 82.94 5.39 82.94 8 84 C8.66 83.67 9.32 83.34 10 83 C12.62 84.12 12.62 84.12 15 86 C15 87.65 15 89.3 15 91 C1.8 91 -11.4 91 -25 91 C-25.66 89.68 -26.32 88.36 -27 87 C-26.5 86.01 -26.5 86.01 -26 85 C-23.46 84.4 -20.93 84.04 -18.35 83.66 C-15.65 83.18 -15.65 83.18 -14 80 C-13.7 77.14 -13.7 77.14 -13.74 73.86 C-13.73 72.6 -13.73 71.33 -13.72 70.03 C-13.73 68.65 -13.73 67.27 -13.73 65.88 C-13.73 64.46 -13.73 63.05 -13.73 61.63 C-13.73 58.65 -13.73 55.68 -13.74 52.7 C-13.75 48.9 -13.74 45.09 -13.73 41.29 C-13.72 38.36 -13.73 35.43 -13.73 32.5 C-13.73 31.09 -13.73 29.69 -13.73 28.29 C-13.72 26.32 -13.73 24.36 -13.74 22.4 C-13.74 21.28 -13.74 20.16 -13.75 19.01 C-14 15.96 -14.71 13.76 -16 11 C-16.63 10.94 -17.25 10.88 -17.9 10.82 C-18.72 10.73 -19.53 10.65 -20.38 10.56 C-21.59 10.44 -21.59 10.44 -22.84 10.32 C-25 10 -25 10 -27 9 C-27 8.01 -27 7.02 -27 6 C-7.49 -0.13 -7.49 -0.13 0 0 Z " fill="#030406" transform="translate(415,1030)"/>
<path d="M0 0 C0.99 0 1.98 0 3 0 C17.87 18.82 12.32 60.28 12 83 C5.4 83 -1.2 83 -8 83 C-8 82.34 -8 81.68 -8 81 C-8.66 80.67 -9.32 80.34 -10 80 C-8.56 39 -8.56 39 -6.12 22.56 C-5.98 21.53 -5.83 20.5 -5.67 19.44 C-4.56 12.63 -2.56 6.4 0 0 Z " fill="#FCFDFF" transform="translate(640,314)"/>
<path d="M0 0 C3.12 -0.06 6.25 -0.09 9.38 -0.12 C10.26 -0.14 11.15 -0.16 12.07 -0.18 C12.92 -0.18 13.77 -0.19 14.65 -0.2 C15.83 -0.21 15.83 -0.21 17.03 -0.23 C19 0 19 0 21 2 C21.35 5.97 21.04 9.96 20.88 13.94 C20.83 15.14 20.78 16.33 20.73 17.57 C20.3 26.28 19.43 34.87 18.19 43.5 C17.96 45.13 17.96 45.13 17.72 46.8 C16.62 53.9 14.7 60.34 12 67 C9 67 9 67 7.41 65.89 C-3.68 51.05 -0.16 17.33 0 0 Z " fill="#FBFCFE" transform="translate(631,412)"/>
<path d="M0 0 C2.47 0.5 2.47 0.5 5 1 C5.33 49.18 5.66 97.36 6 147 C1 144 1 144 0 142 C-0.1 140.22 -0.13 138.45 -0.13 136.67 C-0.13 135.54 -0.13 134.41 -0.14 133.24 C-0.13 131.99 -0.13 130.74 -0.13 129.46 C-0.13 128.15 -0.13 126.84 -0.13 125.49 C-0.14 121.9 -0.14 118.3 -0.13 114.7 C-0.13 110.94 -0.13 107.18 -0.14 103.41 C-0.14 97.09 -0.14 90.77 -0.13 84.45 C-0.12 77.14 -0.13 69.83 -0.13 62.52 C-0.14 56.25 -0.14 49.98 -0.13 43.71 C-0.13 39.96 -0.13 36.22 -0.14 32.47 C-0.14 28.29 -0.13 24.11 -0.13 19.93 C-0.13 18.69 -0.13 17.45 -0.14 16.17 C-0.13 15.03 -0.13 13.89 -0.13 12.71 C-0.13 11.72 -0.13 10.74 -0.13 9.72 C0 7 0 7 0.57 4.27 C1.24 1.98 1.24 1.98 0 0 Z " fill="#EB3AEC" transform="translate(1051,967)"/>
<path d="M0 0 C0.66 0.33 1.32 0.66 2 1 C0.83 3.54 -0.37 5.47 -2.12 7.69 C-4.5 11.88 -4.74 15.27 -4 20 C-2.76 23.19 -1.18 24.96 1.44 27.12 C4.83 29.99 8.12 32.93 11.38 35.94 C14.85 39.11 18.37 42.15 22.06 45.06 C34.3 54.78 43.57 64.6 50 79 C50.39 79.87 50.78 80.73 51.19 81.62 C54.22 90.49 54.18 100.1 50.33 108.64 C46.87 114.77 42.17 119.63 36 123 C35.01 123 34.02 123 33 123 C33 123.66 33 124.32 33 125 C29.53 125.99 29.53 125.99 26 127 C27.29 123.13 28.71 122.76 32.19 120.75 C39.38 116.29 44.2 111.81 46.52 103.5 C48.88 91.15 45.64 79.17 38.83 68.78 C31.76 58.37 31.76 58.37 22.27 50.38 C21.14 49.7 21.14 49.7 20 49 C20 48.34 20 47.68 20 47 C19.14 46.62 19.14 46.62 18.26 46.23 C15.76 44.87 13.96 43.31 11.88 41.38 C8.62 38.41 5.3 35.63 1.81 32.94 C-9.5 24 -9.5 24 -10.24 18.08 C-10.43 12.12 -9.59 8.82 -6 4 C-4.07 2.41 -2.19 1.25 0 0 Z " fill="#EB3AEC" transform="translate(92,996)"/>
<path d="M0 0 C-0.59 0.34 -1.18 0.68 -1.79 1.03 C-8.53 5.17 -12.48 9.45 -15 17 C-15.95 27.49 -14.94 35.04 -8.16 43.23 C-2.85 48.83 3.27 53.46 9.36 58.17 C38.89 81.04 38.89 81.04 42 99 C42.63 105.53 41.57 110.43 38 116 C34.58 119.89 31.55 122.59 26.5 123.94 C25.67 123.96 24.85 123.98 24 124 C29 119 29 119 31.12 117.12 C35.44 112.24 36.64 107.11 36.4 100.73 C33.6 81.74 17.51 69.24 3.33 58.24 C-19.47 40.41 -19.47 40.41 -22 26 C-22.41 19 -19.98 12.69 -16 7 C-6.62 -2.21 -6.62 -2.21 0 0 Z " fill="#4BEAED" transform="translate(729,991)"/>
<path d="M0 0 C0.66 0.33 1.32 0.66 2 1 C1.4 1.44 0.79 1.87 0.17 2.32 C-6.9 7.59 -11.13 12.13 -13 21 C-13.64 27.74 -12.4 34.56 -8.49 40.17 C-6.73 42.21 -4.91 44.11 -3 46 C-2.46 46.57 -1.93 47.14 -1.38 47.73 C4.39 53.77 10.99 58.89 17.58 64 C30.28 73.91 41.26 84.78 45 101 C45.3 107.14 43.65 113.04 40 118 C37.55 120.36 35.07 122.49 32 124 C31.01 123.67 30.02 123.34 29 123 C29.99 122.67 30.98 122.34 32 122 C32.5 120.52 32.5 120.52 33 119 C33.45 118.59 33.91 118.17 34.38 117.75 C38.03 113.81 39.21 109.42 39.44 104.19 C38.97 91.8 30.7 79.87 21.88 71.62 C18.01 68.29 14.01 65.15 10 62 C7.26 59.82 4.54 57.63 1.81 55.44 C1.15 54.91 0.48 54.38 -0.2 53.83 C-7.38 48.04 -13.47 42.67 -17 34 C-17.41 32.99 -17.83 31.98 -18.25 30.94 C-20.34 22.73 -17.99 16.24 -14 9 C-10.24 4.42 -5.56 1.85 0 0 Z " fill="#4BEBED" transform="translate(81,990)"/>
<path d="M0 0 C-0.94 2.6 -1.75 4.71 -3.54 6.84 C-6.28 10.88 -5.88 15.34 -5 20 C-1.76 25.88 4.11 29.83 9.33 33.87 C13.15 36.92 16.69 40.25 20.27 43.57 C22.81 45.83 25.42 47.89 28.12 49.94 C39.68 59.06 48.87 72.53 52 87 C53.05 96.75 52.3 104.52 46.18 112.32 C44.5 114.27 42.79 116.16 41 118 C40.01 117.51 40.01 117.51 39 117 C39.99 115.52 39.99 115.52 41 114 C42.01 112.23 42.01 112.23 43 110 C43.54 108.93 44.07 107.86 44.62 106.75 C47.97 97.55 46.92 86 43.46 77.02 C39.13 68.08 34.05 59.99 26 54 C23.49 51.55 21.04 49.05 18.62 46.5 C16.52 44.49 14.57 42.94 12.19 41.31 C11.14 40.55 10.08 39.79 9 39 C9 38.34 9 37.68 9 37 C8.26 36.75 7.51 36.51 6.75 36.25 C3.72 34.87 2.24 33.45 0 31 C-0.8 30.22 -1.61 29.43 -2.44 28.62 C-3.28 27.76 -4.13 26.89 -5 26 C-5.93 25.15 -6.86 24.31 -7.81 23.44 C-10.84 19.69 -10.81 15.66 -10.63 10.99 C-9.49 5.58 -5.9 0 0 0 Z " fill="#EB3BEC" transform="translate(738,997)"/>
<path d="M0 0 C3.87 4.14 5.56 9.14 5.96 14.75 C3.99 16.72 0.21 15.94 -2.47 15.96 C-3.22 15.96 -3.96 15.97 -4.73 15.97 C-6.32 15.98 -7.9 15.99 -9.48 15.99 C-11.9 16 -14.32 16.03 -16.74 16.07 C-18.28 16.07 -19.81 16.08 -21.35 16.08 C-22.07 16.09 -22.8 16.11 -23.54 16.12 C-28.6 16.1 -28.6 16.1 -31.02 14.23 C-31.53 13.5 -31.53 13.5 -32.04 12.75 C-30.44 10.96 -28.84 9.17 -27.23 7.38 C-26.78 6.87 -26.33 6.36 -25.86 5.84 C-19.92 -0.75 -8.46 -5.16 0 0 Z " fill="#FBF9FE" transform="translate(204.04296875,1037.24609375)"/>
<path d="M0 0 C-0.96 0.51 -0.96 0.51 -1.94 1.03 C-10.59 5.88 -16.82 11.45 -20 21 C-22.13 29.54 -22.02 39.07 -18 47 C-15.11 51.36 -11.85 55.27 -8.06 58.88 C-6 61 -6 61 -6 64 C-7.87 65.88 -9.74 67.6 -11.75 69.31 C-16.81 73.64 -21.47 77.66 -22.56 84.56 C-21.85 88.9 -20.32 90.23 -17 93 C-15 95 -15 95 -15 97 C-20.95 95.02 -25.74 92.34 -28.75 86.75 C-29.11 81.37 -27.21 78.22 -24 74 C-21.82 71.77 -19.49 69.88 -17 68 C-15.61 66.82 -15.61 66.82 -14.19 65.62 C-12 64 -12 64 -10 64 C-11.89 60.91 -13.48 58.4 -16.38 56.19 C-22.32 51.23 -26.5 44.14 -27.25 36.42 C-27.68 26.11 -25.44 15.71 -18.7 7.65 C-14 3.1 -6.63 -2.21 0 0 Z " fill="#4DE9EC" transform="translate(589,1031)"/>
<path d="M0 0 C-0.96 0.53 -0.96 0.53 -1.94 1.07 C-14.73 8.36 -22.01 18.19 -25.95 32.44 C-26.5 35.64 -26.82 38.75 -27 42 C-27.07 43.14 -27.14 44.28 -27.21 45.46 C-27.57 57.7 -25.69 69.16 -18 79 C-13.57 83.68 -8.69 87.04 -3 90 C-3 90.66 -3 91.32 -3 92 C-12.19 91.04 -19.76 84.25 -25.5 77.28 C-33.6 64.97 -34.88 49.9 -32.32 35.65 C-30.55 27.42 -27.65 20.05 -23 13 C-22.61 12.41 -22.22 11.82 -21.82 11.21 C-17.5 5.41 -7.58 -2.81 0 0 Z " fill="#48EDEF" transform="translate(184,1031)"/>
<path d="M0 0 C-0.65 0.57 -1.3 1.14 -1.98 1.72 C-13.7 12.08 -21.67 22.18 -23.22 38.29 C-23.97 53.12 -22.28 66.51 -12 78 C-8.04 81.56 -3.64 84.39 1 87 C0.67 87.66 0.34 88.32 0 89 C-7.75 88.19 -14.91 81.41 -20 75.79 C-27.38 65.41 -31.06 52.64 -30 40 C-27.43 25.37 -22.21 13.22 -11 3 C-4.47 -1.49 -4.47 -1.49 0 0 Z " fill="#49F0F1" transform="translate(1162,1033)"/>
<path d="M0 0 C-0.63 0.4 -1.26 0.8 -1.91 1.21 C-14.23 9.4 -21.81 19.37 -25 34 C-25.48 37.33 -25.78 40.64 -26 44 C-26.05 44.71 -26.11 45.42 -26.16 46.15 C-26.63 57.44 -23.58 68.8 -17 78 C-14.01 81.22 -10.82 83.51 -7.06 85.75 C-6.38 86.16 -5.7 86.58 -5 87 C-5 87.66 -5 88.32 -5 89 C-4.34 89.33 -3.68 89.66 -3 90 C-11.16 89.22 -17.64 83.78 -22.97 77.79 C-31.54 65.67 -33.15 51.65 -31.73 37.22 C-29.62 24.99 -23.78 12.14 -13.93 4.29 C-5 -1.67 -5 -1.67 0 0 Z " fill="#49EEF0" transform="translate(998,1033)"/>
<path d="M0 0 C3 1 3 1 4.66 3.16 C6.22 6.48 6.38 8.73 6.39 12.38 C6.4 13.65 6.41 14.92 6.42 16.22 C6.41 17.6 6.41 18.97 6.4 20.35 C6.4 21.77 6.4 23.18 6.41 24.6 C6.41 27.57 6.41 30.53 6.39 33.5 C6.37 37.3 6.38 41.1 6.4 44.9 C6.41 47.82 6.41 50.75 6.4 53.68 C6.4 55.08 6.4 56.48 6.41 57.88 C6.42 59.83 6.4 61.79 6.39 63.75 C6.39 64.86 6.38 65.98 6.38 67.12 C5.96 70.3 5.14 71.67 3 74 C1.68 73.67 0.36 73.34 -1 73 C-1.02 63.63 -1.04 54.26 -1.05 44.89 C-1.06 40.54 -1.06 36.19 -1.08 31.84 C-1.09 27.64 -1.09 23.45 -1.09 19.25 C-1.1 17.65 -1.1 16.04 -1.11 14.44 C-1.11 12.2 -1.11 9.96 -1.11 7.72 C-1.12 6.45 -1.12 5.17 -1.12 3.85 C-1 1 -1 1 0 0 Z " fill="#48F1F3" transform="translate(396,1040)"/>
<path d="M0 0 C0.99 0 1.98 0 3 0 C4.42 2.85 4.16 5.3 4.19 8.48 C4.2 9.15 4.21 9.81 4.21 10.5 C4.23 11.94 4.25 13.39 4.26 14.84 C4.28 17.13 4.31 19.42 4.34 21.71 C4.4 26.58 4.45 31.44 4.5 36.31 C4.56 41.94 4.62 47.57 4.69 53.2 C4.72 55.46 4.74 57.71 4.76 59.96 C4.78 61.35 4.79 62.74 4.81 64.13 C4.82 65.34 4.84 66.55 4.85 67.79 C4.98 70.65 5.35 73.23 6 76 C1.34 74.53 1.34 74.53 -0.13 72.24 C-4.32 61.48 -2.19 46.39 -2.19 35.04 C-2.19 31.61 -2.21 28.18 -2.22 24.75 C-2.23 22.56 -2.23 20.36 -2.23 18.16 C-2.24 17.15 -2.24 16.13 -2.25 15.08 C-2.23 9.65 -1.8 5.13 0 0 Z " fill="#EA3AEB" transform="translate(825,1039)"/>
<path d="M0 0 C4.88 0.88 4.88 0.88 6 2 C6.11 4.34 6.15 6.65 6.16 8.99 C6.16 9.73 6.17 10.46 6.17 11.21 C6.18 12.81 6.19 14.4 6.2 16 C6.21 18.52 6.23 21.05 6.25 23.58 C6.31 30.76 6.37 37.95 6.4 45.13 C6.42 49.52 6.46 53.91 6.5 58.3 C6.52 59.98 6.53 61.65 6.53 63.32 C6.53 65.67 6.56 68.01 6.58 70.36 C6.58 71.05 6.58 71.73 6.57 72.44 C6.65 77.03 7.86 79.99 10 84 C9.5 84.99 9.5 84.99 9 86 C4.61 83.42 2.43 81.91 1 77 C0.8 74.42 0.69 71.94 0.68 69.36 C0.67 68.61 0.66 67.86 0.65 67.09 C0.62 64.61 0.6 62.14 0.59 59.67 C0.57 57.95 0.55 56.23 0.53 54.51 C0.48 49.99 0.44 45.48 0.4 40.96 C0.36 36.35 0.31 31.74 0.26 27.13 C0.16 18.08 0.08 9.04 0 0 Z " fill="#EB3AEC" transform="translate(414,1029)"/>
<path d="M0 0 C4 0 4 0 6.22 2.22 C9.17 7.17 8.53 12.91 8.46 18.48 C8.46 19.7 8.46 20.91 8.46 22.15 C8.45 24.71 8.44 27.27 8.41 29.83 C8.38 33.72 8.37 37.61 8.37 41.51 C8.36 44 8.35 46.49 8.34 48.98 C8.33 50.14 8.33 51.29 8.33 52.48 C8.25 59.21 7.61 65.46 6 72 C3.52 72.49 3.52 72.49 1 73 C1 72.14 1 71.29 1.01 70.41 C1.03 62.34 1.04 54.28 1.05 46.22 C1.06 42.07 1.06 37.93 1.08 33.78 C1.09 29.78 1.09 25.78 1.09 21.78 C1.1 20.25 1.1 18.73 1.11 17.2 C1.11 15.06 1.11 12.93 1.11 10.79 C1.12 9.57 1.12 8.35 1.12 7.1 C1.02 4.53 0.76 2.44 0 0 Z " fill="#55E8EC" transform="translate(452,1041)"/>
<path d="M0 0 C1.65 0 3.3 0 5 0 C5 0.66 5 1.32 5 2 C5.66 2 6.32 2 7 2 C7.01 2.74 7.02 3.48 7.02 4.24 C7.1 11.24 7.19 18.24 7.29 25.24 C7.34 28.84 7.38 32.43 7.42 36.03 C7.46 39.51 7.51 43 7.56 46.48 C7.59 48.43 7.6 50.39 7.62 52.34 C7.55 68.23 7.55 68.23 14.69 81.81 C15.12 82.2 15.55 82.6 16 83 C15.01 83.49 15.01 83.49 14 84 C5.07 78.52 5.07 78.52 3.4 73.05 C1.8 65.48 1.67 58.02 1.62 50.31 C1.6 48.92 1.59 47.53 1.57 46.13 C1.52 42.5 1.49 38.86 1.46 35.23 C1.41 29.38 1.34 23.53 1.27 17.69 C1.25 15.65 1.23 13.61 1.21 11.58 C1.2 10.35 1.19 9.12 1.17 7.85 C1.16 6.77 1.15 5.68 1.14 4.56 C1.17 2.01 1.17 2.01 0 0 Z " fill="#46F2F3" transform="translate(802,1039)"/>
<path d="M0 0 C1.32 0 2.64 0 4 0 C4 0.66 4 1.32 4 2 C4.66 2 5.32 2 6 2 C6.01 2.95 6.02 3.9 6.03 4.88 C6.13 13.86 6.23 22.83 6.34 31.81 C6.39 36.42 6.45 41.04 6.5 45.65 C6.55 50.1 6.6 54.56 6.65 59.01 C6.67 60.71 6.69 62.41 6.71 64.11 C6.73 66.49 6.76 68.87 6.79 71.25 C6.8 71.95 6.81 72.65 6.81 73.37 C6.87 77.34 7.25 81.1 8 85 C5.19 83.6 3.36 82.67 1.86 79.86 C0.8 76.34 0.69 73.01 0.68 69.36 C0.67 68.61 0.66 67.86 0.65 67.09 C0.62 64.61 0.6 62.14 0.59 59.67 C0.57 57.95 0.55 56.23 0.53 54.51 C0.48 49.99 0.44 45.48 0.4 40.96 C0.36 36.35 0.31 31.74 0.26 27.13 C0.16 18.08 0.08 9.04 0 0 Z " fill="#EB3AEC" transform="translate(1108,1029)"/>
<path d="M0 0 C3.9 1.46 5.94 2.27 8 6 C10.11 12.73 10.29 19.01 10.31 26.02 C10.33 28.37 10.36 30.71 10.38 33.05 C10.41 36.72 10.44 40.38 10.46 44.04 C10.48 47.6 10.52 51.15 10.56 54.71 C10.56 55.79 10.56 56.88 10.56 57.99 C10.65 64.82 11.7 70.58 14 77 C14.31 77.99 14.62 78.98 14.94 80 C16.27 82.5 17.44 82.91 20 84 C21.75 85.62 21.75 85.62 23 87 C21.51 87.49 21.51 87.49 20 88 C13.61 84.53 9.35 79.83 7 73 C6.66 72.06 6.32 71.12 5.97 70.15 C4.43 64.68 4.72 59.06 4.73 53.42 C4.71 50.93 4.69 48.45 4.66 45.97 C4.64 42.08 4.62 38.19 4.62 34.3 C4.61 30.52 4.58 26.75 4.54 22.98 C4.54 21.83 4.55 20.68 4.55 19.49 C4.47 12.2 3.24 6.55 0 0 Z " fill="#51ECEF" transform="translate(860,1035)"/>
<path d="M0 0 C9.41 1.61 15.18 6.43 20.92 13.91 C30.09 27.56 32.16 41.01 30 57 C27.17 70.01 20.35 79.81 10 88 C9.34 87.67 8.68 87.34 8 87 C8.59 86.28 9.18 85.56 9.78 84.82 C20.49 71.2 26.42 56.47 25 39 C22.97 26.51 17.52 13.86 7.33 5.92 C5.55 4.69 3.76 3.48 1.94 2.31 C1.3 1.88 0.66 1.45 0 1 C0 0.67 0 0.34 0 0 Z " fill="#EA3BEB" transform="translate(1194,1031)"/>
<path d="M0 0 C1.32 0.66 2.64 1.32 4 2 C3.41 2.83 2.81 3.65 2.2 4.5 C-0.2 8.12 -1.69 11.88 -3.17 15.94 C-3.6 17.08 -3.6 17.08 -4.03 18.23 C-4.94 20.67 -5.85 23.12 -6.75 25.56 C-7.38 27.25 -8.01 28.94 -8.64 30.62 C-9.88 33.93 -11.11 37.24 -12.34 40.55 C-14.65 46.75 -16.99 52.93 -19.37 59.1 C-20.91 63.13 -22.43 67.16 -23.89 71.22 C-24.21 72.07 -24.52 72.91 -24.84 73.78 C-25.43 75.38 -26.01 76.98 -26.57 78.58 C-27.36 80.7 -27.36 80.7 -29 84 C-31.1 84.71 -31.1 84.71 -33 85 C-32.47 78.86 -31.04 73.77 -28.79 68.05 C-28.3 66.79 -28.3 66.79 -27.81 65.5 C-26.75 62.76 -25.69 60.04 -24.62 57.31 C-23.89 55.43 -23.17 53.54 -22.44 51.66 C-21.34 48.82 -20.24 45.97 -19.14 43.13 C-16.93 37.44 -14.77 31.73 -12.67 26 C-12.17 24.66 -11.68 23.32 -11.19 21.99 C-10.3 19.56 -9.41 17.14 -8.54 14.71 C-6.38 8.9 -4.37 4.44 0 0 Z " fill="#EB3AEC" transform="translate(373,1037)"/>
<path d="M0 0 C6.47 1.19 10.08 3.71 14 9 C22.7 23.88 25.88 39.98 22.28 57.08 C20.07 64.75 17.19 70.39 10.94 75.5 C8 77 8 77 5.62 76.75 C4.82 76.38 4.82 76.38 4 76 C4.93 75.63 4.93 75.63 5.88 75.25 C8.46 73.73 8.8 72.71 10 70 C10.64 69.15 11.28 68.31 11.94 67.44 C19.22 56.28 18.68 39.52 16.34 26.82 C13.9 17.21 9.32 8.7 1 3 C0.34 2.34 -0.32 1.68 -1 1 C-0.67 0.67 -0.34 0.34 0 0 Z " fill="#48EEF0" transform="translate(1182,1038)"/>
<path d="M0 0 C4.19 0.12 6.84 1.9 9.71 4.88 C12.5 9.46 11.87 15.01 11.83 20.21 C11.84 21.49 11.85 22.78 11.86 24.1 C11.87 26.8 11.86 29.51 11.84 32.22 C11.81 35.67 11.84 39.12 11.89 42.58 C11.92 45.89 11.91 49.21 11.89 52.52 C11.92 54.37 11.92 54.37 11.95 56.25 C11.83 63.38 10.96 67.44 5.82 72.52 C3.34 74.54 1.03 75.97 -2 77 C-2.99 76.67 -3.98 76.34 -5 76 C-3.51 75.51 -3.51 75.51 -2 75 C-1.71 74.42 -1.42 73.85 -1.12 73.25 C0 71 0 71 2.53 69.19 C6.12 65.64 5.62 61.32 5.67 56.54 C5.66 55.29 5.64 54.04 5.63 52.75 C5.63 51.45 5.63 50.16 5.64 48.83 C5.64 46.1 5.62 43.37 5.6 40.64 C5.56 37.14 5.57 33.64 5.59 30.15 C5.6 26.81 5.58 23.46 5.57 20.12 C5.57 18.24 5.57 18.24 5.58 16.32 C5.57 15.16 5.55 13.99 5.53 12.79 C5.53 11.77 5.52 10.74 5.51 9.69 C4.87 6.3 3.6 5.19 1 3 C0.34 2.34 -0.32 1.68 -1 1 C-0.67 0.67 -0.34 0.34 0 0 Z " fill="#46F1F2" transform="translate(1026,1037)"/>
<path d="M0 0 C2.66 0.08 4.45 0.53 6.49 2.27 C13.34 9.83 16.76 19.55 20.19 29 C20.97 31.11 21.75 33.23 22.53 35.34 C22.93 36.43 23.34 37.52 23.75 38.64 C25.85 44.3 28.02 49.93 30.19 55.56 C30.61 56.65 31.03 57.74 31.46 58.87 C34.23 66.06 37.08 73.22 40.04 80.34 C41 83 41 83 41 86 C38.73 85.54 38.73 85.54 36 84 C34.34 81.29 33.33 78.36 32.26 75.38 C31.92 74.49 31.59 73.6 31.24 72.69 C30.52 70.79 29.8 68.88 29.1 66.97 C28.01 64.02 26.89 61.08 25.77 58.14 C23.06 51.07 20.37 43.98 17.7 36.89 C11.58 20.62 11.58 20.62 4 5 C3.66 4.26 3.32 3.52 2.96 2.76 C2.12 0.82 2.12 0.82 0 0 Z " fill="#4AF0F2" transform="translate(232,1036)"/>
<path d="M0 0 C3.32 -0.08 5.35 0.4 7.82 2.68 C15.67 12.19 17.59 22.02 17.5 34.11 C17.51 35.33 17.52 36.54 17.53 37.79 C17.56 41.63 17.56 45.47 17.56 49.31 C17.57 53.17 17.58 57.03 17.6 60.89 C17.62 63.28 17.62 65.67 17.61 68.06 C17.65 73.9 17.91 77.87 21 83 C20.67 83.66 20.34 84.32 20 85 C17.03 83.46 15.18 82.45 13 80 C11.97 76.22 12.12 72.52 12.2 68.63 C12.2 66.96 12.2 66.96 12.19 65.25 C12.18 61.69 12.21 58.13 12.25 54.56 C13.02 27.28 13.02 27.28 2 3 C1.34 2.01 0.68 1.02 0 0 Z " fill="#EA3AEB" transform="translate(519,1030)"/>
<path d="M0 0 C4.75 0.75 4.75 0.75 7 3 C7.26 5.81 7.26 5.81 7.27 9.44 C7.28 10.1 7.28 10.76 7.29 11.44 C7.3 13.63 7.3 15.81 7.3 18 C7.3 19.52 7.31 21.03 7.31 22.55 C7.32 25.73 7.32 28.91 7.32 32.09 C7.31 36.18 7.33 40.26 7.35 44.34 C7.36 47.47 7.37 50.61 7.36 53.74 C7.36 55.25 7.37 56.75 7.38 58.26 C7.39 60.36 7.38 62.46 7.37 64.56 C7.37 65.76 7.37 66.96 7.37 68.19 C7.25 69.12 7.13 70.05 7 71 C4 73 4 73 1 73 C1 72.14 1 71.29 1.01 70.41 C1.03 62.34 1.04 54.28 1.05 46.22 C1.06 42.07 1.06 37.93 1.08 33.78 C1.09 29.78 1.09 25.78 1.09 21.78 C1.1 20.25 1.1 18.73 1.11 17.2 C1.11 15.06 1.11 12.93 1.11 10.79 C1.12 9.57 1.12 8.35 1.12 7.1 C1.02 4.53 0.76 2.44 0 0 Z " fill="#45F2F3" transform="translate(1088,1041)"/>
<path d="M0 0 C0.66 0.33 1.32 0.66 2 1 C0.34 4.71 0.34 4.71 -1.41 6.21 C-3.71 8.79 -4.5 11.56 -5.62 14.81 C-6.05 16.02 -6.48 17.22 -6.91 18.46 C-11.07 32.03 -10.14 47.03 -3.61 59.7 C-0.66 64.39 2.67 67.6 7 71 C7 71.66 7 72.32 7 73 C7.66 73 8.32 73 9 73 C9 73.66 9 74.32 9 75 C-0.05 71.81 -5.66 66 -10.26 57.73 C-16.58 44.32 -16.99 28.94 -12 15 C-9.26 8.49 -5.68 4.17 0 0 Z " fill="#EA3AEB" transform="translate(1166,1040)"/>
<path d="M0 0 C2.77 0 4.48 0.54 6.56 2.39 C16.08 13.71 14.47 29.83 14.39 43.7 C14.37 47.09 14.39 50.48 14.41 53.87 C14.41 56.03 14.4 58.19 14.4 60.35 C14.41 61.86 14.41 61.86 14.42 63.41 C14.41 64.35 14.4 65.29 14.39 66.25 C14.39 67.08 14.38 67.9 14.38 68.75 C13.9 71.57 12.99 72.96 11 75 C10.01 75 9.02 75 8 75 C8.01 74.31 8.01 73.62 8.02 72.9 C8.08 66.34 8.13 59.78 8.16 53.22 C8.17 49.85 8.19 46.48 8.23 43.11 C8.26 39.22 8.28 35.33 8.29 31.45 C8.31 30.25 8.32 29.05 8.34 27.82 C8.34 18.81 7.51 11.31 2 4 C2 3.34 2 2.68 2 2 C1.34 2 0.68 2 0 2 C0 1.34 0 0.68 0 0 Z " fill="#56E9ED" transform="translate(504,1039)"/>
<path d="M0 0 C2.31 0.19 2.31 0.19 5 1 C9.58 6.89 9.18 13.61 9.24 20.73 C9.25 22.14 9.25 22.14 9.26 23.59 C9.28 25.58 9.29 27.58 9.3 29.57 C9.31 31.6 9.33 33.62 9.36 35.65 C9.71 59.52 9.71 59.52 2.82 69.01 C2.07 69.71 1.33 70.41 0.56 71.12 C-0.55 72.21 -0.55 72.21 -1.68 73.32 C-4.19 75.14 -5.96 75.65 -9 76 C-8.5 75.01 -8.5 75.01 -8 74 C-7.34 74 -6.68 74 -6 74 C-5.75 73.44 -5.5 72.89 -5.25 72.31 C-4 70 -4 70 -2.06 67.69 C3.2 60.83 3.45 54.8 3.4 46.41 C3.4 45.3 3.4 44.2 3.41 43.06 C3.41 40.73 3.4 38.4 3.39 36.07 C3.38 32.51 3.39 28.96 3.41 25.4 C3.41 23.13 3.4 20.86 3.4 18.59 C3.4 17.54 3.41 16.48 3.42 15.39 C3.36 9.48 2.79 5.24 0 0 Z " fill="#51EAED" transform="translate(919,1036)"/>
<path d="M0 0 C2.34 1.79 2.96 2.67 3.35 5.64 C3.34 6.7 3.33 7.76 3.32 8.86 C3.32 10.06 3.32 11.27 3.31 12.51 C3.3 13.82 3.28 15.12 3.26 16.47 C3.25 17.83 3.24 19.19 3.24 20.55 C3.22 24.13 3.19 27.72 3.15 31.31 C3.09 37.02 3.05 42.73 3.02 48.44 C3.01 50.42 2.99 52.4 2.96 54.38 C2.61 68 2.61 68 6 81 C0.39 79.54 0.39 79.54 -1.18 77.37 C-2.31 74.1 -2.24 71.22 -2.23 67.75 C-2.23 67.03 -2.23 66.31 -2.23 65.56 C-2.23 63.18 -2.21 60.8 -2.2 58.42 C-2.19 56.77 -2.19 55.12 -2.19 53.46 C-2.18 49.12 -2.16 44.77 -2.14 40.42 C-2.12 35.98 -2.11 31.55 -2.1 27.11 C-2.08 18.41 -2.04 9.7 -2 1 C-1.34 0.67 -0.68 0.34 0 0 Z " fill="#EB3AEC" transform="translate(944,1030)"/>
<path d="M0 0 C2.76 2.76 2.26 4.38 2.27 8.25 C2.28 9.57 2.29 10.88 2.3 12.24 C2.3 12.94 2.3 13.65 2.3 14.38 C2.31 16.59 2.33 18.8 2.35 21.01 C2.4 27.3 2.43 33.59 2.46 39.88 C2.47 43.73 2.5 47.58 2.54 51.42 C2.55 52.88 2.56 54.35 2.56 55.81 C2.53 69.36 2.53 69.36 9 81 C8.01 81.49 8.01 81.49 7 82 C2.26 79.26 -0.05 77.14 -2 72 C-2.87 67.74 -3.12 63.7 -3.11 59.35 C-3.11 58.05 -3.11 56.75 -3.11 55.41 C-3.11 54.01 -3.1 52.6 -3.1 51.2 C-3.1 49.75 -3.09 48.3 -3.09 46.85 C-3.09 43.05 -3.08 39.25 -3.07 35.46 C-3.06 31.58 -3.05 27.69 -3.05 23.81 C-3.04 16.21 -3.02 8.6 -3 1 C-2.01 0.67 -1.02 0.34 0 0 Z " fill="#EB3AEC" transform="translate(886,1030)"/>
<path d="M0 0 C0.66 0.33 1.32 0.66 2 1 C1.84 1.54 1.68 2.08 1.51 2.63 C0.91 5.44 0.87 8.01 0.85 10.88 C0.85 12.07 0.84 13.25 0.84 14.47 C0.83 15.75 0.83 17.03 0.83 18.34 C0.83 19.65 0.83 20.97 0.82 22.32 C0.82 25.1 0.81 27.88 0.81 30.66 C0.81 34.22 0.8 37.77 0.78 41.33 C0.77 44.73 0.77 48.13 0.77 51.53 C0.76 52.8 0.76 54.08 0.75 55.39 C0.75 56.58 0.75 57.76 0.76 58.99 C0.76 60.03 0.75 61.07 0.75 62.15 C1.01 65.12 1.75 67.31 3 70 C-0.95 68.72 -2.87 67.59 -5 64 C-5.39 61.27 -5.39 61.27 -5.42 58.1 C-5.44 56.91 -5.45 55.73 -5.47 54.5 C-5.47 53.22 -5.47 51.94 -5.47 50.62 C-5.48 49.31 -5.48 47.99 -5.49 46.64 C-5.51 43.85 -5.51 41.07 -5.5 38.28 C-5.5 34.72 -5.53 31.15 -5.57 27.59 C-5.6 24.19 -5.59 20.78 -5.59 17.38 C-5.61 16.1 -5.63 14.82 -5.64 13.5 C-5.63 12.31 -5.62 11.12 -5.62 9.9 C-5.62 8.85 -5.62 7.81 -5.62 6.73 C-4.79 3.07 -3.06 2.03 0 0 Z " fill="#EB3AEC" transform="translate(478,1044)"/>
<path d="M0 0 C1.98 0.66 3.96 1.32 6 2 C6 5 6 5 4.02 7.02 C3.15 7.75 2.28 8.49 1.38 9.25 C-6.67 16.3 -13.85 23.8 -15 35 C-15.48 42.35 -14.54 48.06 -9.62 53.75 C-4.65 58.02 -4.65 58.02 0.81 61.62 C1.53 62.08 2.26 62.53 3 63 C3 63.66 3 64.32 3 65 C-5.54 63.8 -12.37 57.39 -17.66 50.9 C-21.3 45.74 -21.76 40.12 -21 34 C-18.24 22.69 -12.01 14.13 -3 7 C-1.65 5.68 -0.31 4.36 1 3 C0.34 2.34 -0.32 1.68 -1 1 C-0.67 0.67 -0.34 0.34 0 0 Z " fill="#48EEF0" transform="translate(578,1128)"/>
<path d="M0 0 C2.31 -0.25 2.31 -0.25 5 0 C8.39 3.51 9.13 6.9 9.11 11.66 C9.11 12.6 9.11 13.54 9.11 14.51 C9.11 15.52 9.1 16.53 9.1 17.57 C9.1 18.61 9.09 19.65 9.09 20.72 C9.09 24.04 9.08 27.37 9.06 30.69 C9.06 32.94 9.05 35.19 9.05 37.44 C9.04 42.96 9.02 48.48 9 54 C6.56 53.62 6.56 53.62 4 53 C2.82 50.63 2.86 49.16 2.83 46.52 C2.81 45.59 2.8 44.67 2.79 43.71 C2.78 42.7 2.76 41.7 2.75 40.66 C2.72 38.55 2.69 36.43 2.65 34.31 C2.61 30.97 2.56 27.62 2.52 24.27 C2.48 21.05 2.43 17.83 2.38 14.6 C2.37 13.6 2.36 12.6 2.35 11.57 C2.34 10.63 2.32 9.7 2.3 8.74 C2.29 7.92 2.28 7.1 2.27 6.25 C1.97 3.79 1.23 2.14 0 0 Z " fill="#58E9EE" transform="translate(1029,978)"/>
<path d="M0 0 C-1.47 3.33 -3.38 5.62 -5.81 8.31 C-14.16 18.71 -16.32 30.95 -15.24 43.95 C-14.07 53.95 -10.9 61.67 -4 69 C-4.5 69.99 -4.5 69.99 -5 71 C-12.12 66.93 -16.51 61.62 -18.88 53.69 C-21.98 39.04 -21.24 24.07 -13.19 11.19 C-5.14 0 -5.14 0 0 0 Z " fill="#EB3DEC" transform="translate(1006,1040)"/>
<path d="M0 0 C6.32 2.26 8.8 6.43 12 12 C12.38 12.58 12.76 13.16 13.14 13.75 C16.08 21.46 14.94 32.9 12 40.44 C7.32 49.93 1.21 58.49 -8 64 C-10.27 64.68 -10.27 64.68 -12 65 C-9.73 62.11 -7.4 59.28 -5 56.5 C-4.49 55.9 -3.97 55.3 -3.45 54.68 C-2.26 53.3 -1.07 51.93 0.12 50.56 C6.64 41.66 10.56 30.06 9 19 C7.11 12 3.62 6.51 -1 1 C-0.67 0.67 -0.34 0.34 0 0 Z " fill="#EB3AEC" transform="translate(643,1124)"/>
<path d="M0 0 C1.32 0 2.64 0 4 0 C4 0.66 4 1.32 4 2 C4.66 2 5.32 2 6 2 C6.59 8.77 4.47 14.15 2.13 20.45 C1.74 21.53 1.34 22.62 0.94 23.74 C-0.32 27.21 -1.6 30.67 -2.88 34.12 C-3.73 36.46 -4.58 38.79 -5.43 41.13 C-11.57 57.97 -11.57 57.97 -14 64 C-14.66 64 -15.32 64 -16 64 C-16.66 61.36 -17.32 58.72 -18 56 C-17.34 56 -16.68 56 -16 56 C-16 53.36 -16 50.72 -16 48 C-15.34 48 -14.68 48 -14 48 C-12.51 44.07 -11.01 40.14 -9.52 36.21 C-9.01 34.88 -8.51 33.55 -8 32.22 C-6.33 27.82 -4.66 23.41 -3 19 C-2.59 17.92 -2.18 16.84 -1.76 15.72 C-1.22 14.26 -1.22 14.26 -0.66 12.77 C-0.34 11.93 -0.03 11.09 0.3 10.22 C1.46 6.55 1.73 3.46 0 0 Z " fill="#4AF0F2" transform="translate(353,1037)"/>
<path d="M0 0 C1.32 0 2.64 0 4 0 C5.52 1.57 5.52 1.57 6.81 3.69 C7.25 4.37 7.69 5.06 8.14 5.76 C9.82 10.14 7.53 14.56 5.96 18.76 C5.55 19.87 5.14 20.98 4.71 22.13 C4.27 23.3 3.83 24.48 3.38 25.69 C2.7 27.49 2.7 27.49 2.02 29.33 C-0.87 37.06 -3.81 44.77 -6.84 52.44 C-8.35 56.26 -9.74 60.09 -11 64 C-11.66 64 -12.32 64 -13 64 C-13 63.34 -13 62.68 -13 62 C-13.66 62 -14.32 62 -15 62 C-14.65 61.34 -14.3 60.68 -13.94 60 C-12.67 55.95 -13.29 53.17 -14 49 C-13.01 49.33 -12.02 49.66 -11 50 C-10.61 48.79 -10.22 47.58 -9.82 46.34 C-7.71 40 -5.29 33.79 -2.88 27.56 C-2.42 26.38 -1.96 25.2 -1.5 23.98 C1.86 15.28 1.86 15.28 3 13 C3.4 7.74 2.66 4.55 0 0 Z " fill="#4AF0F2" transform="translate(293,1037)"/>
<path d="M0 0 C3 1 3 1 4.18 3.33 C4.55 4.36 4.93 5.39 5.31 6.46 C5.74 7.62 6.17 8.78 6.62 9.98 C7.08 11.26 7.54 12.54 8 13.81 C8.72 15.78 9.45 17.75 10.18 19.71 C10.68 21.07 11.19 22.43 11.69 23.79 C14.83 32.3 18.2 40.73 21.56 49.16 C22.21 50.82 22.21 50.82 22.88 52.5 C23.27 53.47 23.65 54.44 24.05 55.44 C24.86 57.62 25.5 59.73 26 62 C22 62 22 62 20.44 60.49 C18.54 57.2 17.25 53.76 15.97 50.2 C15.69 49.44 15.41 48.69 15.13 47.91 C14.25 45.51 13.37 43.1 12.5 40.69 C11.63 38.29 10.75 35.89 9.87 33.49 C9.33 32.01 8.78 30.52 8.24 29.03 C7.04 25.71 5.77 22.46 4.31 19.24 C3 16 3 16 3 12 C2.34 11.67 1.68 11.34 1 11 C-0.37 7.44 -0.07 3.77 0 0 Z " fill="#4BF0F2" transform="translate(305,1059)"/>
<path d="M0 0 C3.12 3.2 4.23 5.8 4.31 10.19 C4 14 4 14 3 17 C-1.15 19.44 -4.41 19.17 -9 18 C-12.25 15.78 -12.9 14.38 -13.94 10.56 C-14.01 6.56 -13.53 5.06 -11 2 C-7.58 -0.56 -4.14 -0.59 0 0 Z " fill="#07040A" transform="translate(1104,976)"/>
<path d="M0 0 C0 0.66 0 1.32 0 2 C0.66 2 1.32 2 2 2 C4.36 5.72 5.15 7.28 4.25 11.69 C3.84 12.78 3.43 13.87 3 15 C2.67 15.99 2.34 16.98 2 18 C-5.04 19.34 -5.04 19.34 -9.38 17.81 C-12.1 15.93 -13.18 15.18 -14 12 C-13.72 7.62 -12.62 4.52 -10 1 C-6.53 -0.16 -3.64 -0.07 0 0 Z " fill="#050408" transform="translate(410,976)"/>
<path d="M0 0 C2.12 0.38 2.12 0.38 4 1 C3.77 1.96 3.54 2.91 3.31 3.9 C2.6 8.93 4.35 12.97 6.11 17.62 C6.61 18.98 6.61 18.98 7.11 20.37 C8.16 23.25 9.24 26.13 10.31 29 C11.37 31.88 12.43 34.75 13.48 37.63 C14.14 39.42 14.8 41.2 15.46 42.98 C17.18 47.62 18.71 52.23 20 57 C18.51 57.49 18.51 57.49 17 58 C13.41 53.12 11.36 48.19 9.33 42.51 C9 41.6 8.67 40.7 8.34 39.77 C7.65 37.86 6.97 35.95 6.29 34.04 C5.25 31.14 4.2 28.24 3.14 25.34 C2.47 23.48 1.8 21.62 1.14 19.76 C0.83 18.9 0.51 18.04 0.18 17.16 C-1.66 11.88 -2.51 7.59 -2 2 C-1.34 1.34 -0.68 0.68 0 0 Z " fill="#EA3BEB" transform="translate(261,1037)"/>
<path d="M0 0 C0.99 0.99 1.98 1.98 3 3 C1.62 8.18 0.04 13.11 -2.26 17.96 C-5.63 25.26 -8.47 32.76 -11.35 40.26 C-12.05 42.1 -12.77 43.94 -13.48 45.77 C-14.1 47.39 -14.1 47.39 -14.73 49.04 C-15.94 51.87 -17.35 54.4 -19 57 C-20.32 56.67 -21.64 56.34 -23 56 C-19.04 45.32 -14.96 34.69 -10.73 24.11 C-9.8 21.78 -8.87 19.44 -7.95 17.1 C-7.35 15.59 -6.75 14.09 -6.14 12.58 C-5.87 11.89 -5.6 11.2 -5.32 10.49 C-3.83 6.78 -2.17 3.37 0 0 Z " fill="#EB3AEC" transform="translate(304,1065)"/>
<path d="M0 0 C0 0.99 0 1.98 0 3 C-0.61 3.26 -1.23 3.52 -1.86 3.79 C-5.48 5.84 -6.75 9.21 -8 13 C-9.38 20.79 -11.04 32.78 -6.9 39.89 C-3.83 43.05 -0.07 44.53 4 46 C6.01 46.98 8.01 47.98 10 49 C10 49.66 10 50.32 10 51 C0.82 49.85 -7.02 43.67 -14 38 C-16.29 33.41 -15.11 27.03 -15 22 C-14.98 21.14 -14.97 20.28 -14.95 19.39 C-14.55 12.97 -12.22 7.01 -7.44 2.55 C-4.82 0.69 -3.24 0 0 0 Z " fill="#4AEDEE" transform="translate(717,1072)"/>
<path d="M0 0 C0.66 0 1.32 0 2 0 C2.68 2.42 3.09 4.7 3.39 7.21 C4.01 11.07 5.04 14.41 6.36 18.08 C6.6 18.73 6.83 19.38 7.07 20.05 C7.81 22.12 8.56 24.19 9.31 26.25 C9.8 27.62 10.3 28.99 10.79 30.36 C11.27 31.7 11.75 33.05 12.24 34.39 C12.47 35.05 12.71 35.7 12.95 36.37 C14.03 39.36 15.13 42.34 16.28 45.29 C16.66 46.26 17.03 47.23 17.42 48.23 C17.92 49.48 17.92 49.48 18.42 50.76 C19.06 53.25 18.85 54.6 18 57 C15.55 56.04 14.26 55.45 12.92 53.13 C12.65 52.37 12.37 51.61 12.09 50.83 C11.62 49.54 11.62 49.54 11.13 48.22 C10.81 47.29 10.48 46.35 10.14 45.39 C9.62 43.95 9.62 43.95 9.09 42.48 C8.36 40.45 7.64 38.42 6.92 36.38 C5.82 33.27 4.7 30.17 3.58 27.07 C2.87 25.09 2.16 23.12 1.46 21.14 C1.12 20.22 0.79 19.29 0.45 18.34 C-3.7 6.53 -3.7 6.53 -1.69 2.12 C-0.85 1.07 -0.85 1.07 0 0 Z " fill="#EB3AEC" transform="translate(319,1037)"/>
<path d="M0 0 C1.94 0.75 1.94 0.75 4 2 C5.8 7.09 5.27 12.81 5.31 18.12 C5.34 19.22 5.37 20.31 5.4 21.43 C5.48 31.05 3.44 39.25 -3.21 46.46 C-6.45 49.25 -10.16 51.15 -14 53 C-14.5 51.52 -14.5 51.52 -15 50 C-14.13 49.53 -13.27 49.05 -12.38 48.56 C-6.32 44.53 -2.93 37.84 -1 31 C-0.74 27.54 -0.74 27.54 -0.84 23.89 C-0.85 23.23 -0.85 22.58 -0.86 21.9 C-0.87 19.83 -0.9 17.76 -0.94 15.69 C-0.97 13.6 -0.99 11.51 -1.01 9.42 C-1.03 7.54 -1.05 5.65 -1.08 3.77 C-1 1 -1 1 0 0 Z " fill="#EB3FEC" transform="translate(636,1039)"/>
<path d="M0 0 C2.06 -0.44 2.06 -0.44 5 0 C10.77 4.47 14.84 9.73 16 17 C16.64 27.8 16.78 37.84 9.56 46.5 C7.27 49.01 5.22 50.82 2 52 C1.01 51.67 0.02 51.34 -1 51 C0.07 50.28 1.14 49.56 2.25 48.81 C8.37 43.49 9.79 35.73 10.38 27.91 C10.79 18.57 9.8 11.15 3.31 4.06 C2.55 3.38 1.79 2.7 1 2 C0.67 1.34 0.34 0.68 0 0 Z " fill="#47EDEE" transform="translate(606,1036)"/>
<path d="M0 0 C5.52 0.99 8.27 2.56 11.71 7.02 C15.54 12.91 17.06 19.01 16 26 C13.51 34.25 8.24 42.23 1 47 C-1.33 48.24 -3.49 49.12 -6 50 C-6.99 49.67 -7.98 49.34 -9 49 C-8.05 48.75 -7.1 48.51 -6.12 48.25 C-2.45 46.78 -2.61 46.35 -1 43 C0.28 41.55 1.6 40.14 2.94 38.75 C8.65 32.39 10.58 26.94 10.29 18.39 C9.59 12.63 6.9 8.26 3 4 C2.01 3.34 1.02 2.68 0 2 C0 1.34 0 0.68 0 0 Z " fill="#47F1F2" transform="translate(623,1134)"/>
<path d="M0 0 C0.33 0.99 0.66 1.98 1 3 C0.24 3.7 -0.53 4.4 -1.31 5.12 C-7.62 11.88 -8.2 18.55 -8.25 27.31 C-8.27 28.14 -8.29 28.97 -8.31 29.83 C-8.36 36.8 -7.28 41.61 -2.31 46.81 C-1.55 47.53 -0.79 48.26 0 49 C0 49.66 0 50.32 0 51 C-4.37 49.59 -7.96 47.46 -11 44 C-13.67 38.16 -14.47 33.37 -14.38 27 C-14.39 26.24 -14.4 25.49 -14.41 24.71 C-14.37 16.9 -12 10.11 -7 4 C-4.73 2.43 -2.48 1.24 0 0 Z " fill="#EA3DEB" transform="translate(595,1036)"/>
<path d="M0 0 C-0.53 4.06 -1.67 6.21 -4.31 9.31 C-11.53 18.39 -13.32 25.13 -12 37 C-10.53 41.57 -7.55 44.83 -4 48 C-4.99 48.49 -4.99 48.49 -6 49 C-15.98 43.29 -15.98 43.29 -17.63 38.18 C-19.1 29.5 -18.81 21.51 -14 14 C-3.86 0 -3.86 0 0 0 Z " fill="#EA3CEC" transform="translate(595,1134)"/>
<path d="M0 0 C0.56 0.23 1.11 0.45 1.69 0.69 C0.76 1.41 -0.17 2.13 -1.12 2.88 C-5.53 6.63 -7.36 9.7 -8 15.5 C-8.11 17.56 -8.21 19.62 -8.31 21.69 C-8.46 23.03 -8.6 24.37 -8.75 25.71 C-9.12 29.92 -9.17 33.52 -8.31 37.69 C-5.11 41.16 -1.59 42.82 2.69 44.69 C5.55 46.23 5.55 46.23 7.69 47.69 C7.69 48.35 7.69 49.01 7.69 49.69 C4.49 48.89 1.72 47.95 -1.31 46.69 C-2.39 46.25 -3.47 45.81 -4.58 45.36 C-8.35 43.3 -11.27 41.49 -13.31 37.69 C-14.27 33.53 -14.43 29.51 -14.44 25.25 C-14.44 24.18 -14.45 23.11 -14.45 22 C-14.14 14.45 -12.31 8.48 -7.31 2.69 C-2.92 -0.39 -2.92 -0.39 0 0 Z " fill="#50E9EC" transform="translate(71.3125,1072.3125)"/>
<path d="M0 0 C0.99 0.33 1.98 0.66 3 1 C2.98 1.73 2.96 2.46 2.94 3.21 C2.85 6.58 2.8 9.95 2.75 13.31 C2.72 14.46 2.68 15.61 2.65 16.79 C2.56 24.81 3.15 33.19 8.37 39.71 C9.54 40.85 10.76 41.93 12 43 C12 43.66 12 44.32 12 45 C12.66 45.33 13.32 45.66 14 46 C13.01 46.49 13.01 46.49 12 47 C5.05 43.03 0.61 37.74 -1.88 30.06 C-3.05 25.1 -3.27 20.26 -3.31 15.19 C-3.32 14.47 -3.32 13.75 -3.33 13.01 C-3.19 3.19 -3.19 3.19 0 0 Z " fill="#EB3AEC" transform="translate(172,1060)"/>
<path d="M0 0 C0.66 0.33 1.32 0.66 2 1 C1.67 1.74 1.34 2.48 1 3.25 C-0.68 9.54 -1.2 16.74 1.19 22.94 C3.1 26.17 5.32 28.39 8 31 C8 31.99 8 32.98 8 34 C1.5 30.99 -2.06 28.62 -5 22 C-6.74 16.78 -7.23 10.11 -5.18 4.91 C-3.71 2.69 -2.4 1.2 0 0 Z " fill="#EB3BEC" transform="translate(78,1079)"/>
<path d="M0 0 C-0.16 0.89 -0.33 1.77 -0.5 2.69 C-1.98 13.56 -1.56 21.48 4.75 30.5 C5.16 30.99 5.58 31.49 6 32 C2.39 32 1.08 30.82 -1.57 28.5 C-6.36 23.47 -7.35 16.97 -7.29 10.32 C-6.81 6.49 -5.22 4.14 -3 1 C-1 0 -1 0 0 0 Z " fill="#EB3BEC" transform="translate(724,1079)"/>
<path d="M0 0 C4.88 0.42 6.81 2.41 10 6 C10.7 6.72 11.4 7.44 12.12 8.19 C16.38 14.56 17.42 21.47 17 29 C15.06 29.56 15.06 29.56 13 30 C11.12 28.12 11.59 24.65 11.38 22.12 C10.4 13.16 6.6 6.22 0 0 Z " fill="#E841EA" transform="translate(212,1030)"/>
<path d="M0 0 C1.32 0.33 2.64 0.66 4 1 C4 1.66 4 2.32 4 3 C4.66 3 5.32 3 6 3 C6 10.92 6 18.84 6 27 C4.68 27.33 3.36 27.66 2 28 C0.82 25.64 0.9 24.27 0.94 21.64 C0.95 20.77 0.95 19.9 0.96 19.01 C0.99 17.18 1.01 15.36 1.04 13.54 C1.08 8.9 0.97 4.57 0 0 Z " fill="#EB3AEC" transform="translate(780,993)"/>
<path d="M0 0 C5.75 2.62 5.75 2.62 8 6 C8.91 13.85 7.63 22.16 7 30 C6.01 30 5.02 30 4 30 C2.75 27.5 2.84 25.71 2.79 22.91 C2.76 21.9 2.73 20.89 2.7 19.84 C2.65 17.71 2.61 15.57 2.57 13.43 C2.54 12.41 2.51 11.4 2.48 10.35 C2.46 9.42 2.44 8.49 2.42 7.53 C1.94 4.61 0.94 3.2 -1 1 C-0.67 0.67 -0.34 0.34 0 0 Z " fill="#EB3AEC" transform="translate(133,991)"/>
<path d="M0 0 C6.33 1.24 9.38 4.98 13 10 C16.04 14.93 16.3 19.35 16 25 C14.35 24.67 12.7 24.34 11 24 C10.89 23.07 10.89 23.07 10.77 22.13 C9.69 15.12 7.17 10.64 3 5 C1.99 3.34 0.98 1.68 0 0 Z " fill="#4AF0F2" transform="translate(757,995)"/>
<path d="M0 0 C1.65 0 3.3 0 5 0 C8.59 5.38 7.33 12.52 6.5 18.75 C6.34 19.49 6.17 20.23 6 21 C3.52 20.01 3.52 20.01 1 19 C0.67 12.73 0.34 6.46 0 0 Z " fill="#EB3AEC" transform="translate(822,1010)"/>
<path d="M0 0 C7.24 2.32 10.35 6.34 14.04 12.83 C16.03 16.95 16.28 20.48 16 25 C14.35 24.67 12.7 24.34 11 24 C10.9 23.36 10.8 22.72 10.7 22.06 C9.14 13.04 6.41 7.56 -1 2 C-0.67 1.34 -0.34 0.68 0 0 Z " fill="#4BEDEF" transform="translate(112,995)"/>
<path d="M0 0 C0.99 0.66 1.98 1.32 3 2 C2.33 2.85 2.33 2.85 1.64 3.73 C0.08 5.89 -1.07 8 -2.25 10.38 C-5.38 16.12 -9.64 19.42 -15 23 C-17.19 22.62 -17.19 22.62 -19 22 C-17.97 21.2 -16.94 20.39 -15.88 19.56 C-11.64 15.94 -8.9 11.71 -6 7 C-2.27 1.14 -2.27 1.14 0 0 Z " fill="#44E4E6" transform="translate(818,1009)"/>
<path d="M0 0 C-0.69 4.84 -3.95 7.27 -7.29 10.59 C-9.44 13.62 -9.39 15.35 -9 19 C-8.1 21.3 -8.1 21.3 -7 23 C-12.75 20.25 -12.75 20.25 -15 18 C-15.07 14.35 -14.71 11.91 -12.44 8.98 C-10.69 7.19 -8.99 5.51 -7 4 C-6.34 4 -5.68 4 -5 4 C-4.67 3.01 -4.34 2.02 -4 1 C-2 0 -2 0 0 0 Z " fill="#EB41EC" transform="translate(597,1095)"/>
<path d="M0 0 C2.12 -0.44 2.12 -0.44 5 0 C10.43 4.22 12.13 9.39 13 16 C11.35 16.33 9.7 16.66 8 17 C7.9 16.41 7.8 15.82 7.7 15.21 C6.73 10.07 5.6 6.96 2 3 C2 2.34 2 1.68 2 1 C1.34 0.67 0.68 0.34 0 0 Z " fill="#4CEFF1" transform="translate(197,1036)"/>
<path d="M0 0 C0.66 0.33 1.32 0.66 2 1 C0.96 3.25 -0.09 5.11 -1.62 7.06 C-3.29 9.01 -3.29 9.01 -3 12 C9.87 12.49 9.87 12.49 23 13 C23 13.33 23 13.66 23 14 C18.78 14.07 14.57 14.13 10.35 14.16 C8.91 14.18 7.48 14.2 6.04 14.23 C3.98 14.26 1.92 14.28 -0.14 14.29 C-1.39 14.31 -2.63 14.32 -3.91 14.34 C-7 14 -7 14 -10 11 C-6.7 7.37 -3.4 3.74 0 0 Z " fill="#D67CDF" transform="translate(182,1039)"/>
<path d="M0 0 C-0.64 0.52 -1.28 1.03 -1.94 1.56 C-4.6 4.71 -4.78 6.92 -5 11 C-4.8 13.3 -4.8 13.3 -4 15 C-3.34 15.33 -2.68 15.66 -2 16 C-2.66 16.33 -3.32 16.66 -4 17 C-7.94 14.9 -9.72 13.92 -11.06 9.56 C-10.99 5.59 -10.57 4 -8 1 C-4.65 -0.84 -3.69 -1.23 0 0 Z " fill="#4CF0F2" transform="translate(1096,977)"/>
<path d="M0 0 C3.06 1.3 3.75 2.85 5.06 5.88 C5.56 9.38 5.56 9.38 5.06 12.88 C2.56 15.81 2.56 15.81 0.06 17.88 C-0.6 16.88 -1.26 15.89 -1.94 14.88 C-1.61 13.78 -1.28 12.69 -0.94 11.56 C0.19 7.41 -0.11 5.71 -1.94 1.88 C-2.6 1.54 -3.26 1.22 -3.94 0.88 C-1.94 -0.12 -1.94 -0.12 0 0 Z " fill="#EB3AEC" transform="translate(413.9375,976.125)"/>
<path d="M0 0 C-0.14 0.7 -0.29 1.4 -0.44 2.12 C-0.62 3.07 -0.81 4.02 -1 5 C-1.23 5.97 -1.45 6.94 -1.69 7.94 C-2.05 11.48 -1.33 13.73 0 17 C-5.75 14.38 -5.75 14.38 -8 11 C-7.68 7.28 -7 4.17 -5 1 C-3 0 -3 0 0 0 Z " fill="#47EBEC" transform="translate(399,977)"/>
<path d="M0 0 C2.31 0.19 2.31 0.19 5 1 C7.41 4.1 8.81 7.06 9 11 C7.56 14.31 7.56 14.31 6 17 C5.34 17 4.68 17 4 17 C3 14 3 14 3.12 10.19 C3.2 6.14 2.1 3.49 0 0 Z " fill="#EB3AEC" transform="translate(1104,976)"/>
<path d="M0 0 C2.29 -0.28 2.29 -0.28 5 0 C6.8 1.97 6.8 1.97 8.31 4.5 C8.82 5.34 9.34 6.17 9.86 7.03 C10.24 7.68 10.61 8.33 11 9 C10.01 10.98 9.02 12.96 8 15 C7.01 14.67 6.02 14.34 5 14 C4.84 12.99 4.84 12.99 4.67 11.95 C4.51 11.06 4.35 10.17 4.19 9.25 C3.96 7.93 3.96 7.93 3.73 6.58 C2.95 3.81 1.85 2.17 0 0 Z " fill="#EB3AEC" transform="translate(101,1072)"/>
<path d="M0 0 C1.32 0.33 2.64 0.66 4 1 C4.33 2.65 4.66 4.3 5 6 C-3.08 13.67 -3.08 13.67 -9 15 C-7.63 11.77 -6.17 10.14 -3.38 8.06 C-0.42 5.75 -0.42 5.75 0.44 2.12 C0.29 1.42 0.15 0.72 0 0 Z " fill="#ED5CEE" transform="translate(225,1104)"/>
<path d="M0 0 C3.52 0.86 5.54 1.46 7.94 4.25 C9.26 7.67 9.08 9.52 8 13 C7.01 13.66 6.02 14.32 5 15 C4.89 14.34 4.78 13.67 4.67 12.99 C3.79 8.09 3.01 4.1 0 0 Z " fill="#EB3DEC" transform="translate(747,1072)"/>
<path d="M0 0 C0.99 0.33 1.98 0.66 3 1 C4.34 5.31 5 8.48 5 13 C2.25 12.13 0.43 11.55 -1.38 9.25 C-2.21 6.23 -1.74 4.01 -1 1 C-0.67 0.67 -0.34 0.34 0 0 Z " fill="#4FE7EA" transform="translate(926,1110)"/>
<path d="M0 0 C2.48 0.49 2.48 0.49 5 1 C5.66 2.98 6.32 4.96 7 7 C6.01 7.99 5.02 8.98 4 10 C3.01 9.67 2.02 9.34 1 9 C0.67 6.03 0.34 3.06 0 0 Z " fill="#C84ACB" transform="translate(472,1029)"/>
<path d="M0 0 C0.99 0.33 1.98 0.66 3 1 C3.95 3.07 3.95 3.07 4.69 5.56 C4.94 6.39 5.19 7.22 5.45 8.07 C5.63 8.7 5.81 9.34 6 10 C2.96 9.67 1.36 9.33 -0.94 7.25 C-2 5 -2 5 -1.19 2.25 C-0.8 1.51 -0.4 0.77 0 0 Z " fill="#49EEF0" transform="translate(1036,1114)"/>
<path d="M0 0 C3.54 0.3 4.78 0.78 7.31 3.38 C9 6 9 6 9 9 C9.66 9.33 10.32 9.66 11 10 C6.73 9.53 4.75 7.12 2 4 C0.69 1.69 0.69 1.69 0 0 Z " fill="#48F1F3" transform="translate(731,1078)"/>
<path d="M0 0 C3 2 3 2 3.81 3.94 C4 6 4 6 2 9 C0.68 8.67 -0.64 8.34 -2 8 C-1.98 7.22 -1.96 6.43 -1.94 5.62 C-1.81 3.02 -1.81 3.02 -3 1 C-2.01 0.67 -1.02 0.34 0 0 Z " fill="#EB3AEC" transform="translate(849,1030)"/>
<path d="M0 0 C3.15 0.34 4.61 0.58 6.81 2.94 C8 5 8 5 8 7 C8.66 7.33 9.32 7.66 10 8 C10 8.66 10 9.32 10 10 C5.14 7.92 2.08 4.86 0 0 Z " fill="#46EFF0" transform="translate(86,1078)"/>
<path d="M0 0 C1.32 0 2.64 0 4 0 C5.35 2.71 5.07 5.01 5 8 C3.68 7.67 2.36 7.34 1 7 C1.02 6.22 1.04 5.43 1.06 4.62 C1.19 2.02 1.19 2.02 0 0 Z " fill="#EB3AEC" transform="translate(652,1031)"/>
<path d="M0 0 C0.66 0.33 1.32 0.66 2 1 C-1.75 4 -1.75 4 -4 4 C-4 4.99 -4 5.98 -4 7 C-6.31 7.66 -8.62 8.32 -11 9 C-9.74 5.22 -8.44 4.74 -5.06 2.75 C-4.17 2.21 -3.27 1.67 -2.35 1.11 C-1.57 0.74 -0.8 0.38 0 0 Z " fill="#E8A8ED" transform="translate(129,1114)"/>
<path d="M0 0 C0.66 0.33 1.32 0.66 2 1 C-4.08 7.25 -4.08 7.25 -7 9 C-7.99 8.67 -8.98 8.34 -10 8 C-7.92 5.82 -5.78 4.04 -3.31 2.31 C-2.69 1.88 -2.07 1.44 -1.43 0.99 C-0.96 0.66 -0.48 0.34 0 0 Z " fill="#E4B5EB" transform="translate(634,1184)"/>
<path d="M0 0 C1.65 0 3.3 0 5 0 C5.33 1.65 5.66 3.3 6 5 C4.35 5.66 2.7 6.32 1 7 C1.02 6.22 1.04 5.43 1.06 4.62 C1.19 2.02 1.19 2.02 0 0 Z " fill="#E538E7" transform="translate(850,1113)"/>
<path d="M0 0 C1.32 0 2.64 0 4 0 C3.67 1.98 3.34 3.96 3 6 C1.35 5.67 -0.3 5.34 -2 5 C-1.34 3.35 -0.68 1.7 0 0 Z " fill="#4DE0E3" transform="translate(793,1033)"/>
<path d="M0 0 C1.98 0 3.96 0 6 0 C2.87 2.53 -0.28 4.45 -4 6 C-6.38 5.69 -6.38 5.69 -8 5 C-2.25 2 -2.25 2 0 2 C0 1.34 0 0.68 0 0 Z " fill="#5EDBE2" transform="translate(217,1104)"/>
</svg>
