<svg width="1069" height="1198" viewBox="0 0 1069 1198" fill="none" xmlns="http://www.w3.org/2000/svg">
<g filter="url(#filter0_d_90_9)">
<circle cx="548.105" cy="500" r="500" fill="#3B382F"/>
<circle cx="614.105" cy="580" r="450" fill="#F9ECC8"/>
<g clip-path="url(#clip0_90_9)">
<path d="M283.428 923.328L291.441 911.847L300.687 899.852L318.803 879.302L334.296 861.996L354.073 839.837L392.712 798.979L421.825 767.677L486.705 699.416L522.038 662.277L597.785 582.45L703.735 470.501L769.853 400.477L779.086 389.749L793.468 374.551L808.734 357.15L821.16 342.388L841.358 318.616L857.822 300.194L870.825 286.455L883.548 274.634L892.347 268.084L896.407 266.198L900.488 267.384L903.197 268.779L903.862 272.118L904.288 276.631L902.837 281.39L898.776 288.125L891.839 296.992L879.688 311.086L864.556 327.515L848.193 344.458L832.322 360.848L817.867 374.989L806.416 385.553L799.673 392.713L778.965 415.245L718.188 479.09L638.089 563.989L580.714 623.886L514.71 694.227L449.696 762.164L388.806 825.693L334.938 880.145L310.611 903.494L300.829 912.429L292.477 919.187L286.953 922.743L285.68 924.001L284.448 924.516L283.428 923.331L283.428 923.328ZM819.583 354.245L820.073 355.477L822.156 356.613L823.867 358.599L828.976 353.574L844.515 336.8L863.786 316.463L879.547 298.508L886.49 290.917L887.983 288.477L886.767 285.937L884.602 283.762L882.879 283.045L879.631 286.028L878.205 288.25L873.218 293.572L864.975 301.895L856.151 310.982L848.076 320.136L838.843 330.863L831.251 339.435L821.751 350.811L819.582 354.243L819.583 354.245Z" fill="#666666"/>
<path d="M901.426 268.794L892.57 277.367L890.051 280.405L890.953 281.291L893.783 281.192L893.693 281.41L884.735 294.538L862.745 319.607L849.194 334.654L829.162 356.197L822.789 361.206L822.336 359.23L821.882 357.253L820.89 356.585L816.011 360.428L803.97 373.038L800.679 378.564L801.941 378.578L807.812 375.404L815.68 369.229L821.748 364.348L825.978 360.235L835.356 351.624L844.138 341.999L854.056 332.08L864.961 319.764L874.537 309.448L882.274 299.898L888.374 292.477L896.184 283.98L901.476 278.521L903.905 275.701L903.284 269.823L903.301 268.553L901.427 268.795L901.426 268.794Z" fill="#ECECEC"/>
<path d="M900.687 268.741L895.836 266.977L891.48 270.783L883.073 278.265L868.477 293.387L853.79 308.727L844.828 318.788L833.78 332.068L823.756 343.474L816.019 353.023L812.242 359.113L809.274 363.241L806.739 367.549L802.582 372.715L799.557 374.52L795.923 379.648L789.643 387.506L776.974 401.642L766.248 413.522L749.259 431.99L741.142 440.615L736.717 446.435L721.851 462.211L708.083 477.167L694.279 491.598L669.479 518.563L634.509 554.83L592.266 598.286L564.658 627.147L529.634 664.159L503.52 691.854L467.847 728.596L444.917 752.253L425.462 773.015L405.395 794.032L382.539 818.743L365.35 835.851L355.163 846.424L351.958 848.665L364.538 834.746L376.272 822.263L386.153 811.818L397.581 799.464L408.882 786.8L420.706 774.1L432.208 762.797L445.849 747.532L459.221 732.922L473.602 717.71L490.141 700.333L515.464 673.329L532.58 655.169L550.361 636.01L568.844 616.376L603.202 580.364L630.019 552.195L710.254 467.6L734.298 441.852L771.93 401.584L786.237 385.319L798.653 370.566L808.027 358.89L815.638 349.032L825.661 337.625L834.191 327.383L846.733 312.938L859.35 299.545L867.736 290.266L879.201 278.438L885.322 272.813L893.479 267.78L896.505 265.975L899.714 266.8L900.69 268.739L900.687 268.741Z" fill="#CCCCCC"/>
</g>
<path d="M13.1662 469.512C203.675 590.654 1080.86 631.561 716.951 327.209C353.04 22.8573 739.375 284.822 851.132 329.566" stroke="#3B382F" stroke-width="5"/>
<g clip-path="url(#clip1_90_9)">
<path d="M284.639 923.97L295.243 918.477L306.948 913.092L328.632 904.787L347.062 897.888L370.618 889.03L415.607 873.577L449.724 861.54L525.122 835.853L566.167 821.891L654.249 791.801L777.577 749.492L854.608 722.964L865.767 718.538L882.509 712.793L900.816 705.73L915.972 699.527L940.512 689.612L960.11 682.257L975.246 677.065L989.369 673.218L998.448 671.794L1002.16 672.001L1004.58 674.553L1005.93 676.71L1004.99 679.518L1003.38 683.123L1000.33 686.157L994.567 689.637L985.842 693.577L971.166 699.384L953.366 705.762L934.465 712.033L916.153 718.082L899.806 722.993L887.128 726.397L879.263 729.117L854.883 737.882L784.295 761.869L690.948 794.057L624.469 816.416L547.386 843.23L472.03 868.616L401.495 892.317L339.837 911.953L312.517 919.876L301.724 922.717L292.877 924.48L287.413 924.95L285.968 925.393L284.867 925.286L284.638 923.972L284.639 923.97ZM909.82 707.908L909.65 709.043L910.662 710.749L911.047 712.952L916.835 711.196L935.074 704.72L957.495 697.044L976.391 689.76L984.581 686.793L986.684 685.541L986.889 683.117L986.258 680.587L985.327 679.345L981.737 680.301L979.774 681.415L973.947 683.445L964.516 686.443L954.344 689.787L944.682 693.485L933.523 697.91L924.453 701.361L912.828 706.172L909.821 707.906L909.82 707.908Z" fill="#25231E" fill-opacity="0.7"/>
<path d="M1004.65 676.006L994.677 678.945L991.585 680.237L991.856 681.276L993.925 682.345L993.769 682.475L981.791 688.838L955.417 699.015L939.335 704.98L915.858 713.266L909.17 714.499L909.682 712.812L910.194 711.126L909.767 710.216L904.643 711.166L890.675 715.889L885.977 718.762L886.875 719.283L892.426 719.242L900.679 717.727L907.093 716.468L911.866 715.05L922.233 712.292L932.602 708.523L943.909 704.988L956.939 700.03L968.169 696.055L977.757 691.92L985.271 688.742L994.466 685.437L1000.57 683.424L1003.5 682.261L1005.55 677.54L1006.1 676.58L1004.65 676.006L1004.65 676.006Z" fill="black"/>
<path d="M1004.15 675.666L1001.42 672.363L996.683 673.496L987.491 675.788L970.628 681.388L953.608 687.118L942.926 691.146L929.385 696.78L917.372 701.403L907.784 705.538L902.499 708.643L898.624 710.582L894.983 712.834L889.817 715.082L886.885 715.232L882.109 717.663L874.282 721.101L859.217 726.73L846.5 731.43L826.506 738.607L817.037 741.885L811.401 744.523L794.068 750.511L777.87 756.32L761.867 761.715L732.677 772.197L692.26 785.642L643.588 801.615L611.583 812.404L570.813 826.394L540.373 836.9L499.252 850.423L472.803 859.145L450.07 867.07L426.79 874.943L399.948 884.496L380.386 890.559L368.609 894.481L365.363 894.89L380.272 889.39L393.966 884.64L405.47 880.69L418.89 875.914L432.351 870.852L446.202 865.973L459.23 862.026L475.47 855.931L491.238 850.225L507.985 844.47L527.196 837.94L556.776 827.64L576.731 820.747L597.586 813.364L619.145 805.904L659.015 792.406L690.159 781.823L783.477 749.92L811.609 740.058L855.628 724.646L872.767 718.06L887.911 711.859L899.573 706.768L909.201 702.347L921.215 697.724L931.663 693.383L946.768 687.467L961.48 682.382L971.419 678.715L984.644 674.354L991.411 672.55L999.388 672.021L1002.32 671.871L1004.27 673.796L1004.15 675.666L1004.15 675.666Z" fill="black"/>
</g>
<line x1="858.202" y1="333.808" x2="1026.97" y2="426.33" stroke="#3B382F" stroke-width="5"/>
</g>
<defs>
<filter id="filter0_d_90_9" x="7.82471" y="0" width="1060.28" height="1197.96" filterUnits="userSpaceOnUse" color-interpolation-filters="sRGB">
<feFlood flood-opacity="0" result="BackgroundImageFix"/>
<feColorMatrix in="SourceAlpha" type="matrix" values="0 0 0 0 0 0 0 0 0 0 0 0 0 0 0 0 0 0 127 0" result="hardAlpha"/>
<feOffset dy="4"/>
<feGaussianBlur stdDeviation="2"/>
<feComposite in2="hardAlpha" operator="out"/>
<feColorMatrix type="matrix" values="0 0 0 0 0 0 0 0 0 0 0 0 0 0 0 0 0 0 0.25 0"/>
<feBlend mode="normal" in2="BackgroundImageFix" result="effect1_dropShadow_90_9"/>
<feBlend mode="normal" in="SourceGraphic" in2="effect1_dropShadow_90_9" result="shape"/>
</filter>
<clipPath id="clip0_90_9">
<rect width="543.856" height="723.443" fill="white" transform="translate(365.005 205.57) rotate(6.48421)"/>
</clipPath>
<clipPath id="clip1_90_9">
<rect width="448.118" height="629.005" fill="white" transform="matrix(0.806029 0.591877 -0.577023 0.816728 647.056 411)"/>
</clipPath>
</defs>
</svg>
